G75*
%MOIN*%
%OFA0B0*%
%FSLAX25Y25*%
%IPPOS*%
%LPD*%
%AMOC8*
5,1,8,0,0,1.08239X$1,22.5*
%
%ADD10C,0.00000*%
%ADD11C,0.00600*%
%ADD12C,0.00500*%
%ADD13C,0.00800*%
%ADD14C,0.00100*%
%ADD15R,0.04000X0.01500*%
%ADD16C,0.01000*%
%ADD17C,0.00400*%
D10*
X0092524Y0001500D02*
X0092524Y0211461D01*
X0296224Y0211461D01*
X0296224Y0001500D01*
X0092524Y0001500D01*
D11*
X0145821Y0017250D02*
X0145821Y0018384D01*
X0145821Y0017817D02*
X0149224Y0017817D01*
X0149224Y0017250D02*
X0149224Y0018384D01*
X0148656Y0019705D02*
X0146388Y0019705D01*
X0145821Y0020273D01*
X0145821Y0021407D01*
X0146388Y0021974D01*
X0148656Y0021974D01*
X0149224Y0021407D01*
X0149224Y0020273D01*
X0148656Y0019705D01*
X0148089Y0023389D02*
X0148089Y0025090D01*
X0147522Y0025657D01*
X0146388Y0025657D01*
X0145821Y0025090D01*
X0145821Y0023389D01*
X0149224Y0023389D01*
X0148089Y0024523D02*
X0149224Y0025657D01*
X0149224Y0027072D02*
X0149224Y0029340D01*
X0149224Y0030755D02*
X0145821Y0030755D01*
X0145821Y0033023D01*
X0147522Y0031889D02*
X0147522Y0030755D01*
X0145821Y0029340D02*
X0145821Y0027072D01*
X0149224Y0027072D01*
X0147522Y0027072D02*
X0147522Y0028206D01*
X0155821Y0026885D02*
X0155821Y0024616D01*
X0155821Y0025751D02*
X0159224Y0025751D01*
X0158656Y0023202D02*
X0159224Y0022635D01*
X0159224Y0021500D01*
X0158656Y0020933D01*
X0157522Y0021500D02*
X0157522Y0022635D01*
X0158089Y0023202D01*
X0158656Y0023202D01*
X0157522Y0021500D02*
X0156955Y0020933D01*
X0156388Y0020933D01*
X0155821Y0021500D01*
X0155821Y0022635D01*
X0156388Y0023202D01*
X0156388Y0019519D02*
X0157522Y0019519D01*
X0158089Y0018951D01*
X0158089Y0017250D01*
X0158089Y0018384D02*
X0159224Y0019519D01*
X0159224Y0017250D02*
X0155821Y0017250D01*
X0155821Y0018951D01*
X0156388Y0019519D01*
X0165821Y0021500D02*
X0166388Y0020933D01*
X0165821Y0021500D02*
X0165821Y0022635D01*
X0166388Y0023202D01*
X0166955Y0023202D01*
X0167522Y0022635D01*
X0168089Y0023202D01*
X0168656Y0023202D01*
X0169224Y0022635D01*
X0169224Y0021500D01*
X0168656Y0020933D01*
X0167522Y0022067D02*
X0167522Y0022635D01*
X0168656Y0024616D02*
X0168656Y0025183D01*
X0169224Y0025183D01*
X0169224Y0024616D01*
X0168656Y0024616D01*
X0168656Y0026458D02*
X0169224Y0027025D01*
X0169224Y0028159D01*
X0168656Y0028726D01*
X0168089Y0028726D01*
X0167522Y0028159D01*
X0167522Y0027592D01*
X0167522Y0028159D02*
X0166955Y0028726D01*
X0166388Y0028726D01*
X0165821Y0028159D01*
X0165821Y0027025D01*
X0166388Y0026458D01*
X0165821Y0030141D02*
X0168089Y0030141D01*
X0169224Y0031275D01*
X0168089Y0032410D01*
X0165821Y0032410D01*
X0175821Y0026885D02*
X0178089Y0026885D01*
X0179224Y0025751D01*
X0178089Y0024616D01*
X0175821Y0024616D01*
X0175821Y0023202D02*
X0175821Y0020933D01*
X0177522Y0020933D01*
X0176955Y0022067D01*
X0176955Y0022635D01*
X0177522Y0023202D01*
X0178656Y0023202D01*
X0179224Y0022635D01*
X0179224Y0021500D01*
X0178656Y0020933D01*
X0177522Y0019519D02*
X0177522Y0017250D01*
X0176388Y0018384D02*
X0178656Y0018384D01*
X0185821Y0017817D02*
X0186388Y0017250D01*
X0188656Y0017250D01*
X0189224Y0017817D01*
X0189224Y0018951D01*
X0188656Y0019519D01*
X0187522Y0019519D01*
X0187522Y0018384D01*
X0186388Y0019519D02*
X0185821Y0018951D01*
X0185821Y0017817D01*
X0185821Y0020933D02*
X0189224Y0023202D01*
X0185821Y0023202D01*
X0185821Y0024616D02*
X0185821Y0026318D01*
X0186388Y0026885D01*
X0188656Y0026885D01*
X0189224Y0026318D01*
X0189224Y0024616D01*
X0185821Y0024616D01*
X0185821Y0020933D02*
X0189224Y0020933D01*
X0195821Y0020933D02*
X0199224Y0023202D01*
X0195821Y0023202D01*
X0195821Y0024616D02*
X0195821Y0026318D01*
X0196388Y0026885D01*
X0198656Y0026885D01*
X0199224Y0026318D01*
X0199224Y0024616D01*
X0195821Y0024616D01*
X0195821Y0020933D02*
X0199224Y0020933D01*
X0198656Y0019519D02*
X0197522Y0019519D01*
X0197522Y0018384D01*
X0196388Y0017250D02*
X0198656Y0017250D01*
X0199224Y0017817D01*
X0199224Y0018951D01*
X0198656Y0019519D01*
X0196388Y0019519D02*
X0195821Y0018951D01*
X0195821Y0017817D01*
X0196388Y0017250D01*
X0205821Y0017250D02*
X0208089Y0017250D01*
X0209224Y0018384D01*
X0208089Y0019519D01*
X0205821Y0019519D01*
X0205821Y0020933D02*
X0205821Y0022067D01*
X0205821Y0021500D02*
X0209224Y0021500D01*
X0209224Y0020933D02*
X0209224Y0022067D01*
X0209224Y0023389D02*
X0205821Y0023389D01*
X0209224Y0025657D01*
X0205821Y0025657D01*
X0225821Y0018951D02*
X0226388Y0019519D01*
X0228656Y0017250D01*
X0229224Y0017817D01*
X0229224Y0018951D01*
X0228656Y0019519D01*
X0226388Y0019519D01*
X0225821Y0018951D02*
X0225821Y0017817D01*
X0226388Y0017250D01*
X0228656Y0017250D01*
X0235821Y0018384D02*
X0239224Y0018384D01*
X0239224Y0017250D02*
X0239224Y0019519D01*
X0236955Y0017250D02*
X0235821Y0018384D01*
X0245821Y0017817D02*
X0246388Y0017250D01*
X0245821Y0017817D02*
X0245821Y0018951D01*
X0246388Y0019519D01*
X0246955Y0019519D01*
X0249224Y0017250D01*
X0249224Y0019519D01*
X0255821Y0018951D02*
X0256388Y0019519D01*
X0256955Y0019519D01*
X0257522Y0018951D01*
X0258089Y0019519D01*
X0258656Y0019519D01*
X0259224Y0018951D01*
X0259224Y0017817D01*
X0258656Y0017250D01*
X0257522Y0018384D02*
X0257522Y0018951D01*
X0255821Y0018951D02*
X0255821Y0017817D01*
X0256388Y0017250D01*
X0265821Y0018951D02*
X0267522Y0017250D01*
X0267522Y0019519D01*
X0265821Y0018951D02*
X0269224Y0018951D01*
X0275821Y0019519D02*
X0275821Y0017250D01*
X0277522Y0017250D01*
X0276955Y0018384D01*
X0276955Y0018951D01*
X0277522Y0019519D01*
X0278656Y0019519D01*
X0279224Y0018951D01*
X0279224Y0017817D01*
X0278656Y0017250D01*
X0168656Y0018384D02*
X0166388Y0018384D01*
X0167522Y0017250D02*
X0167522Y0019519D01*
X0150524Y0052000D02*
X0150524Y0065000D01*
X0150524Y0078000D01*
X0150524Y0091000D01*
X0104524Y0091000D01*
X0104524Y0078000D01*
X0104524Y0065000D01*
X0104524Y0052000D01*
X0150524Y0052000D01*
X0150524Y0065000D02*
X0148524Y0065000D01*
X0148524Y0078000D01*
X0150524Y0078000D01*
X0145524Y0079000D02*
X0139524Y0079000D01*
X0139524Y0064000D01*
X0145524Y0064000D01*
X0145524Y0079000D01*
X0135524Y0079000D02*
X0129524Y0079000D01*
X0129524Y0064000D01*
X0135524Y0064000D01*
X0135524Y0079000D01*
X0125524Y0079000D02*
X0119524Y0079000D01*
X0119524Y0064000D01*
X0125524Y0064000D01*
X0125524Y0079000D01*
X0115524Y0079000D02*
X0109524Y0079000D01*
X0109524Y0064000D01*
X0115524Y0064000D01*
X0115524Y0079000D01*
X0106524Y0078000D02*
X0104524Y0078000D01*
X0106524Y0078000D02*
X0106524Y0065000D01*
X0104524Y0065000D01*
X0177524Y0111500D02*
X0177527Y0111745D01*
X0177536Y0111991D01*
X0177551Y0112236D01*
X0177572Y0112480D01*
X0177599Y0112724D01*
X0177632Y0112967D01*
X0177671Y0113210D01*
X0177716Y0113451D01*
X0177767Y0113691D01*
X0177824Y0113930D01*
X0177886Y0114167D01*
X0177955Y0114403D01*
X0178029Y0114637D01*
X0178109Y0114869D01*
X0178194Y0115099D01*
X0178285Y0115327D01*
X0178382Y0115552D01*
X0178484Y0115776D01*
X0178592Y0115996D01*
X0178705Y0116214D01*
X0178823Y0116429D01*
X0178947Y0116641D01*
X0179075Y0116850D01*
X0179209Y0117056D01*
X0179348Y0117258D01*
X0179492Y0117457D01*
X0179641Y0117652D01*
X0179794Y0117844D01*
X0179952Y0118032D01*
X0180114Y0118216D01*
X0180282Y0118395D01*
X0180453Y0118571D01*
X0180629Y0118742D01*
X0180808Y0118910D01*
X0180992Y0119072D01*
X0181180Y0119230D01*
X0181372Y0119383D01*
X0181567Y0119532D01*
X0181766Y0119676D01*
X0181968Y0119815D01*
X0182174Y0119949D01*
X0182383Y0120077D01*
X0182595Y0120201D01*
X0182810Y0120319D01*
X0183028Y0120432D01*
X0183248Y0120540D01*
X0183472Y0120642D01*
X0183697Y0120739D01*
X0183925Y0120830D01*
X0184155Y0120915D01*
X0184387Y0120995D01*
X0184621Y0121069D01*
X0184857Y0121138D01*
X0185094Y0121200D01*
X0185333Y0121257D01*
X0185573Y0121308D01*
X0185814Y0121353D01*
X0186057Y0121392D01*
X0186300Y0121425D01*
X0186544Y0121452D01*
X0186788Y0121473D01*
X0187033Y0121488D01*
X0187279Y0121497D01*
X0187524Y0121500D01*
X0187769Y0121497D01*
X0188015Y0121488D01*
X0188260Y0121473D01*
X0188504Y0121452D01*
X0188748Y0121425D01*
X0188991Y0121392D01*
X0189234Y0121353D01*
X0189475Y0121308D01*
X0189715Y0121257D01*
X0189954Y0121200D01*
X0190191Y0121138D01*
X0190427Y0121069D01*
X0190661Y0120995D01*
X0190893Y0120915D01*
X0191123Y0120830D01*
X0191351Y0120739D01*
X0191576Y0120642D01*
X0191800Y0120540D01*
X0192020Y0120432D01*
X0192238Y0120319D01*
X0192453Y0120201D01*
X0192665Y0120077D01*
X0192874Y0119949D01*
X0193080Y0119815D01*
X0193282Y0119676D01*
X0193481Y0119532D01*
X0193676Y0119383D01*
X0193868Y0119230D01*
X0194056Y0119072D01*
X0194240Y0118910D01*
X0194419Y0118742D01*
X0194595Y0118571D01*
X0194766Y0118395D01*
X0194934Y0118216D01*
X0195096Y0118032D01*
X0195254Y0117844D01*
X0195407Y0117652D01*
X0195556Y0117457D01*
X0195700Y0117258D01*
X0195839Y0117056D01*
X0195973Y0116850D01*
X0196101Y0116641D01*
X0196225Y0116429D01*
X0196343Y0116214D01*
X0196456Y0115996D01*
X0196564Y0115776D01*
X0196666Y0115552D01*
X0196763Y0115327D01*
X0196854Y0115099D01*
X0196939Y0114869D01*
X0197019Y0114637D01*
X0197093Y0114403D01*
X0197162Y0114167D01*
X0197224Y0113930D01*
X0197281Y0113691D01*
X0197332Y0113451D01*
X0197377Y0113210D01*
X0197416Y0112967D01*
X0197449Y0112724D01*
X0197476Y0112480D01*
X0197497Y0112236D01*
X0197512Y0111991D01*
X0197521Y0111745D01*
X0197524Y0111500D01*
X0197521Y0111255D01*
X0197512Y0111009D01*
X0197497Y0110764D01*
X0197476Y0110520D01*
X0197449Y0110276D01*
X0197416Y0110033D01*
X0197377Y0109790D01*
X0197332Y0109549D01*
X0197281Y0109309D01*
X0197224Y0109070D01*
X0197162Y0108833D01*
X0197093Y0108597D01*
X0197019Y0108363D01*
X0196939Y0108131D01*
X0196854Y0107901D01*
X0196763Y0107673D01*
X0196666Y0107448D01*
X0196564Y0107224D01*
X0196456Y0107004D01*
X0196343Y0106786D01*
X0196225Y0106571D01*
X0196101Y0106359D01*
X0195973Y0106150D01*
X0195839Y0105944D01*
X0195700Y0105742D01*
X0195556Y0105543D01*
X0195407Y0105348D01*
X0195254Y0105156D01*
X0195096Y0104968D01*
X0194934Y0104784D01*
X0194766Y0104605D01*
X0194595Y0104429D01*
X0194419Y0104258D01*
X0194240Y0104090D01*
X0194056Y0103928D01*
X0193868Y0103770D01*
X0193676Y0103617D01*
X0193481Y0103468D01*
X0193282Y0103324D01*
X0193080Y0103185D01*
X0192874Y0103051D01*
X0192665Y0102923D01*
X0192453Y0102799D01*
X0192238Y0102681D01*
X0192020Y0102568D01*
X0191800Y0102460D01*
X0191576Y0102358D01*
X0191351Y0102261D01*
X0191123Y0102170D01*
X0190893Y0102085D01*
X0190661Y0102005D01*
X0190427Y0101931D01*
X0190191Y0101862D01*
X0189954Y0101800D01*
X0189715Y0101743D01*
X0189475Y0101692D01*
X0189234Y0101647D01*
X0188991Y0101608D01*
X0188748Y0101575D01*
X0188504Y0101548D01*
X0188260Y0101527D01*
X0188015Y0101512D01*
X0187769Y0101503D01*
X0187524Y0101500D01*
X0187279Y0101503D01*
X0187033Y0101512D01*
X0186788Y0101527D01*
X0186544Y0101548D01*
X0186300Y0101575D01*
X0186057Y0101608D01*
X0185814Y0101647D01*
X0185573Y0101692D01*
X0185333Y0101743D01*
X0185094Y0101800D01*
X0184857Y0101862D01*
X0184621Y0101931D01*
X0184387Y0102005D01*
X0184155Y0102085D01*
X0183925Y0102170D01*
X0183697Y0102261D01*
X0183472Y0102358D01*
X0183248Y0102460D01*
X0183028Y0102568D01*
X0182810Y0102681D01*
X0182595Y0102799D01*
X0182383Y0102923D01*
X0182174Y0103051D01*
X0181968Y0103185D01*
X0181766Y0103324D01*
X0181567Y0103468D01*
X0181372Y0103617D01*
X0181180Y0103770D01*
X0180992Y0103928D01*
X0180808Y0104090D01*
X0180629Y0104258D01*
X0180453Y0104429D01*
X0180282Y0104605D01*
X0180114Y0104784D01*
X0179952Y0104968D01*
X0179794Y0105156D01*
X0179641Y0105348D01*
X0179492Y0105543D01*
X0179348Y0105742D01*
X0179209Y0105944D01*
X0179075Y0106150D01*
X0178947Y0106359D01*
X0178823Y0106571D01*
X0178705Y0106786D01*
X0178592Y0107004D01*
X0178484Y0107224D01*
X0178382Y0107448D01*
X0178285Y0107673D01*
X0178194Y0107901D01*
X0178109Y0108131D01*
X0178029Y0108363D01*
X0177955Y0108597D01*
X0177886Y0108833D01*
X0177824Y0109070D01*
X0177767Y0109309D01*
X0177716Y0109549D01*
X0177671Y0109790D01*
X0177632Y0110033D01*
X0177599Y0110276D01*
X0177572Y0110520D01*
X0177551Y0110764D01*
X0177536Y0111009D01*
X0177527Y0111255D01*
X0177524Y0111500D01*
X0124224Y0182067D02*
X0121955Y0182067D01*
X0120821Y0183202D01*
X0121955Y0184336D01*
X0124224Y0184336D01*
X0124224Y0185751D02*
X0120821Y0185751D01*
X0120821Y0187452D01*
X0121388Y0188019D01*
X0122522Y0188019D01*
X0123089Y0187452D01*
X0123089Y0185751D01*
X0123089Y0186885D02*
X0124224Y0188019D01*
X0124224Y0189434D02*
X0124224Y0191702D01*
X0124224Y0193117D02*
X0120821Y0193117D01*
X0120821Y0195385D01*
X0122522Y0194251D02*
X0122522Y0193117D01*
X0120821Y0191702D02*
X0120821Y0189434D01*
X0124224Y0189434D01*
X0122522Y0189434D02*
X0122522Y0190568D01*
X0122522Y0184336D02*
X0122522Y0182067D01*
X0114224Y0186318D02*
X0114224Y0187452D01*
X0113656Y0188019D01*
X0113089Y0188019D01*
X0112522Y0187452D01*
X0112522Y0186318D01*
X0111955Y0185751D01*
X0111388Y0185751D01*
X0110821Y0186318D01*
X0110821Y0187452D01*
X0111388Y0188019D01*
X0110821Y0189434D02*
X0110821Y0191135D01*
X0111388Y0191702D01*
X0113656Y0191702D01*
X0114224Y0191135D01*
X0114224Y0189434D01*
X0110821Y0189434D01*
X0114224Y0186318D02*
X0113656Y0185751D01*
X0114224Y0193117D02*
X0111955Y0193117D01*
X0110821Y0194251D01*
X0111955Y0195385D01*
X0114224Y0195385D01*
X0112522Y0195385D02*
X0112522Y0193117D01*
X0104224Y0193117D02*
X0104224Y0195385D01*
X0104224Y0193117D02*
X0100821Y0193117D01*
X0101388Y0191702D02*
X0100821Y0191135D01*
X0100821Y0190001D01*
X0101388Y0189434D01*
X0103656Y0189434D01*
X0104224Y0190001D01*
X0104224Y0191135D01*
X0103656Y0191702D01*
X0103656Y0188019D02*
X0104224Y0187452D01*
X0104224Y0186318D01*
X0103656Y0185751D01*
X0102522Y0186318D02*
X0102522Y0187452D01*
X0103089Y0188019D01*
X0103656Y0188019D01*
X0102522Y0186318D02*
X0101955Y0185751D01*
X0101388Y0185751D01*
X0100821Y0186318D01*
X0100821Y0187452D01*
X0101388Y0188019D01*
X0130821Y0187452D02*
X0130821Y0186318D01*
X0131388Y0185751D01*
X0133656Y0185751D01*
X0134224Y0186318D01*
X0134224Y0187452D01*
X0133656Y0188019D01*
X0132522Y0188019D01*
X0132522Y0186885D01*
X0131388Y0188019D02*
X0130821Y0187452D01*
X0130821Y0189434D02*
X0134224Y0191702D01*
X0130821Y0191702D01*
X0130821Y0193117D02*
X0130821Y0194818D01*
X0131388Y0195385D01*
X0133656Y0195385D01*
X0134224Y0194818D01*
X0134224Y0193117D01*
X0130821Y0193117D01*
X0130821Y0189434D02*
X0134224Y0189434D01*
X0140821Y0190568D02*
X0141955Y0189434D01*
X0140821Y0190568D02*
X0144224Y0190568D01*
X0144224Y0189434D02*
X0144224Y0191702D01*
X0143656Y0193117D02*
X0144224Y0193684D01*
X0144224Y0194818D01*
X0143656Y0195385D01*
X0143089Y0195385D01*
X0142522Y0194818D01*
X0142522Y0194251D01*
X0142522Y0194818D02*
X0141955Y0195385D01*
X0141388Y0195385D01*
X0140821Y0194818D01*
X0140821Y0193684D01*
X0141388Y0193117D01*
X0150821Y0193684D02*
X0151388Y0193117D01*
X0150821Y0193684D02*
X0150821Y0194818D01*
X0151388Y0195385D01*
X0151955Y0195385D01*
X0154224Y0193117D01*
X0154224Y0195385D01*
X0154224Y0191702D02*
X0154224Y0189434D01*
X0154224Y0190568D02*
X0150821Y0190568D01*
X0151955Y0189434D01*
X0160821Y0190568D02*
X0161955Y0189434D01*
X0160821Y0190568D02*
X0164224Y0190568D01*
X0164224Y0189434D02*
X0164224Y0191702D01*
X0164224Y0193117D02*
X0164224Y0195385D01*
X0164224Y0194251D02*
X0160821Y0194251D01*
X0161955Y0193117D01*
X0170821Y0193684D02*
X0170821Y0194818D01*
X0171388Y0195385D01*
X0173656Y0193117D01*
X0174224Y0193684D01*
X0174224Y0194818D01*
X0173656Y0195385D01*
X0171388Y0195385D01*
X0170821Y0193684D02*
X0171388Y0193117D01*
X0173656Y0193117D01*
X0174224Y0191702D02*
X0174224Y0189434D01*
X0174224Y0190568D02*
X0170821Y0190568D01*
X0171955Y0189434D01*
X0180821Y0193684D02*
X0180821Y0194818D01*
X0181388Y0195385D01*
X0183656Y0195385D01*
X0184224Y0194818D01*
X0184224Y0193684D01*
X0183656Y0193117D01*
X0182522Y0193684D02*
X0182522Y0195385D01*
X0182522Y0193684D02*
X0181955Y0193117D01*
X0181388Y0193117D01*
X0180821Y0193684D01*
X0190821Y0193684D02*
X0190821Y0194818D01*
X0191388Y0195385D01*
X0191955Y0195385D01*
X0192522Y0194818D01*
X0192522Y0193684D01*
X0191955Y0193117D01*
X0191388Y0193117D01*
X0190821Y0193684D01*
X0192522Y0193684D02*
X0193089Y0193117D01*
X0193656Y0193117D01*
X0194224Y0193684D01*
X0194224Y0194818D01*
X0193656Y0195385D01*
X0193089Y0195385D01*
X0192522Y0194818D01*
X0205821Y0195385D02*
X0205821Y0193117D01*
X0205821Y0195385D02*
X0206388Y0195385D01*
X0208656Y0193117D01*
X0209224Y0193117D01*
X0215821Y0195385D02*
X0216388Y0194251D01*
X0217522Y0193117D01*
X0217522Y0194818D01*
X0218089Y0195385D01*
X0218656Y0195385D01*
X0219224Y0194818D01*
X0219224Y0193684D01*
X0218656Y0193117D01*
X0217522Y0193117D01*
X0225821Y0193117D02*
X0227522Y0193117D01*
X0226955Y0194251D01*
X0226955Y0194818D01*
X0227522Y0195385D01*
X0228656Y0195385D01*
X0229224Y0194818D01*
X0229224Y0193684D01*
X0228656Y0193117D01*
X0225821Y0193117D02*
X0225821Y0195385D01*
X0235821Y0194818D02*
X0237522Y0193117D01*
X0237522Y0195385D01*
X0239224Y0194818D02*
X0235821Y0194818D01*
X0245821Y0194818D02*
X0245821Y0193684D01*
X0246388Y0193117D01*
X0247522Y0194251D02*
X0247522Y0194818D01*
X0248089Y0195385D01*
X0248656Y0195385D01*
X0249224Y0194818D01*
X0249224Y0193684D01*
X0248656Y0193117D01*
X0247522Y0194818D02*
X0246955Y0195385D01*
X0246388Y0195385D01*
X0245821Y0194818D01*
X0255821Y0194818D02*
X0255821Y0193684D01*
X0256388Y0193117D01*
X0255821Y0194818D02*
X0256388Y0195385D01*
X0256955Y0195385D01*
X0259224Y0193117D01*
X0259224Y0195385D01*
X0265821Y0195385D02*
X0269224Y0193117D01*
X0269224Y0195385D02*
X0265821Y0193117D01*
X0265821Y0191702D02*
X0265821Y0189434D01*
X0265821Y0190568D02*
X0269224Y0190568D01*
X0275821Y0191135D02*
X0275821Y0189434D01*
X0279224Y0189434D01*
X0278089Y0189434D02*
X0278089Y0191135D01*
X0277522Y0191702D01*
X0276388Y0191702D01*
X0275821Y0191135D01*
X0275821Y0193117D02*
X0279224Y0195385D01*
X0279224Y0193117D02*
X0275821Y0195385D01*
X0279224Y0191702D02*
X0278089Y0190568D01*
D12*
X0213674Y0157701D02*
X0211772Y0157701D01*
X0212723Y0156750D01*
X0212723Y0158018D01*
X0212723Y0155808D02*
X0212089Y0155808D01*
X0211772Y0155491D01*
X0211772Y0154540D01*
X0213674Y0154540D01*
X0213040Y0154540D02*
X0213040Y0155491D01*
X0212723Y0155808D01*
X0213040Y0155174D02*
X0213674Y0155808D01*
X0198674Y0155808D02*
X0198040Y0155174D01*
X0198040Y0155491D02*
X0198040Y0154540D01*
X0198674Y0154540D02*
X0196772Y0154540D01*
X0196772Y0155491D01*
X0197089Y0155808D01*
X0197723Y0155808D01*
X0198040Y0155491D01*
X0198357Y0156750D02*
X0198674Y0157067D01*
X0198674Y0157701D01*
X0198357Y0158018D01*
X0198040Y0158018D01*
X0197723Y0157701D01*
X0197723Y0157384D01*
X0197723Y0157701D02*
X0197406Y0158018D01*
X0197089Y0158018D01*
X0196772Y0157701D01*
X0196772Y0157067D01*
X0197089Y0156750D01*
X0173274Y0156750D02*
X0172006Y0158018D01*
X0171689Y0158018D01*
X0171372Y0157701D01*
X0171372Y0157067D01*
X0171689Y0156750D01*
X0171689Y0155808D02*
X0172323Y0155808D01*
X0172640Y0155491D01*
X0172640Y0154540D01*
X0173274Y0154540D02*
X0171372Y0154540D01*
X0171372Y0155491D01*
X0171689Y0155808D01*
X0172640Y0155174D02*
X0173274Y0155808D01*
X0173274Y0156750D02*
X0173274Y0158018D01*
X0168674Y0158018D02*
X0168674Y0156750D01*
X0168674Y0157384D02*
X0166772Y0157384D01*
X0167406Y0156750D01*
X0167723Y0155808D02*
X0168040Y0155491D01*
X0168040Y0154540D01*
X0168674Y0154540D02*
X0166772Y0154540D01*
X0166772Y0155491D01*
X0167089Y0155808D01*
X0167723Y0155808D01*
X0168040Y0155174D02*
X0168674Y0155808D01*
X0153674Y0155808D02*
X0153040Y0155174D01*
X0153040Y0155491D02*
X0153040Y0154540D01*
X0153674Y0154540D02*
X0151772Y0154540D01*
X0151772Y0155491D01*
X0152089Y0155808D01*
X0152723Y0155808D01*
X0153040Y0155491D01*
X0153357Y0156750D02*
X0153674Y0157067D01*
X0153674Y0157701D01*
X0153357Y0158018D01*
X0152723Y0158018D01*
X0152406Y0157701D01*
X0152406Y0157384D01*
X0152723Y0156750D01*
X0151772Y0156750D01*
X0151772Y0158018D01*
X0138674Y0157701D02*
X0138674Y0157067D01*
X0138357Y0156750D01*
X0137723Y0156750D01*
X0137723Y0157701D01*
X0138040Y0158018D01*
X0138357Y0158018D01*
X0138674Y0157701D01*
X0137723Y0156750D02*
X0137089Y0157384D01*
X0136772Y0158018D01*
X0137089Y0155808D02*
X0137723Y0155808D01*
X0138040Y0155491D01*
X0138040Y0154540D01*
X0138674Y0154540D02*
X0136772Y0154540D01*
X0136772Y0155491D01*
X0137089Y0155808D01*
X0138040Y0155174D02*
X0138674Y0155808D01*
X0113274Y0155808D02*
X0112640Y0155174D01*
X0112640Y0155491D02*
X0112640Y0154540D01*
X0113274Y0154540D02*
X0111372Y0154540D01*
X0111372Y0155491D01*
X0111689Y0155808D01*
X0112323Y0155808D01*
X0112640Y0155491D01*
X0112957Y0156750D02*
X0113274Y0156750D01*
X0112957Y0156750D02*
X0111689Y0158018D01*
X0111372Y0158018D01*
X0111372Y0156750D01*
X0185564Y0097902D02*
X0186515Y0097902D01*
X0186831Y0097585D01*
X0186831Y0096317D01*
X0186515Y0096000D01*
X0185564Y0096000D01*
X0185564Y0097902D01*
X0187774Y0097585D02*
X0188091Y0097902D01*
X0188724Y0097902D01*
X0189041Y0097585D01*
X0189041Y0097268D01*
X0188724Y0096951D01*
X0189041Y0096634D01*
X0189041Y0096317D01*
X0188724Y0096000D01*
X0188091Y0096000D01*
X0187774Y0096317D01*
X0188407Y0096951D02*
X0188724Y0096951D01*
X0148422Y0050254D02*
X0146920Y0050254D01*
X0146170Y0049503D01*
X0144568Y0050254D02*
X0144568Y0045750D01*
X0143067Y0047251D01*
X0141566Y0045750D01*
X0141566Y0050254D01*
X0139964Y0049503D02*
X0139214Y0050254D01*
X0137712Y0050254D01*
X0136962Y0049503D01*
X0136962Y0048753D01*
X0137712Y0048002D01*
X0139214Y0048002D01*
X0139964Y0047251D01*
X0139964Y0046501D01*
X0139214Y0045750D01*
X0137712Y0045750D01*
X0136962Y0046501D01*
X0146170Y0045750D02*
X0149172Y0048753D01*
X0149172Y0049503D01*
X0148422Y0050254D01*
X0149172Y0045750D02*
X0146170Y0045750D01*
X0298772Y0104540D02*
X0298772Y0105491D01*
X0299089Y0105808D01*
X0299406Y0105808D01*
X0299723Y0105491D01*
X0299723Y0104540D01*
X0300674Y0104540D02*
X0298772Y0104540D01*
X0299723Y0105491D02*
X0300040Y0105808D01*
X0300357Y0105808D01*
X0300674Y0105491D01*
X0300674Y0104540D01*
X0300674Y0106750D02*
X0300674Y0108018D01*
X0300674Y0107384D02*
X0298772Y0107384D01*
X0299406Y0106750D01*
D13*
X0210524Y0146500D02*
X0207524Y0146500D01*
X0207524Y0145500D01*
X0207524Y0146500D02*
X0204524Y0146500D01*
X0204524Y0166500D01*
X0207524Y0166500D01*
X0207524Y0167500D01*
X0207524Y0166500D02*
X0210524Y0166500D01*
X0210524Y0146500D01*
X0195524Y0146500D02*
X0192524Y0146500D01*
X0192524Y0145500D01*
X0192524Y0146500D02*
X0189524Y0146500D01*
X0189524Y0166500D01*
X0192524Y0166500D01*
X0192524Y0167500D01*
X0192524Y0166500D02*
X0195524Y0166500D01*
X0195524Y0146500D01*
X0180524Y0146500D02*
X0177524Y0146500D01*
X0177524Y0145500D01*
X0177524Y0146500D02*
X0174524Y0146500D01*
X0174524Y0166500D01*
X0177524Y0166500D01*
X0177524Y0167500D01*
X0177524Y0166500D02*
X0180524Y0166500D01*
X0180524Y0146500D01*
X0165524Y0146500D02*
X0162524Y0146500D01*
X0162524Y0145500D01*
X0162524Y0146500D02*
X0159524Y0146500D01*
X0159524Y0166500D01*
X0162524Y0166500D01*
X0162524Y0167500D01*
X0162524Y0166500D02*
X0165524Y0166500D01*
X0165524Y0146500D01*
X0150524Y0146500D02*
X0147524Y0146500D01*
X0147524Y0145500D01*
X0147524Y0146500D02*
X0144524Y0146500D01*
X0144524Y0166500D01*
X0147524Y0166500D01*
X0147524Y0167500D01*
X0147524Y0166500D02*
X0150524Y0166500D01*
X0150524Y0146500D01*
X0135524Y0146500D02*
X0132524Y0146500D01*
X0132524Y0145500D01*
X0132524Y0146500D02*
X0129524Y0146500D01*
X0129524Y0166500D01*
X0132524Y0166500D01*
X0132524Y0167500D01*
X0132524Y0166500D02*
X0135524Y0166500D01*
X0135524Y0146500D01*
X0120524Y0146500D02*
X0117524Y0146500D01*
X0117524Y0145500D01*
X0117524Y0146500D02*
X0114524Y0146500D01*
X0114524Y0166500D01*
X0117524Y0166500D01*
X0117524Y0167500D01*
X0117524Y0166500D02*
X0120524Y0166500D01*
X0120524Y0146500D01*
X0177524Y0119000D02*
X0177524Y0104000D01*
D14*
X0177195Y0103691D02*
X0177915Y0104231D01*
X0177914Y0104230D02*
X0178095Y0103997D01*
X0178281Y0103769D01*
X0178473Y0103545D01*
X0178670Y0103326D01*
X0178872Y0103112D01*
X0179080Y0102903D01*
X0179293Y0102700D01*
X0179510Y0102501D01*
X0179733Y0102308D01*
X0179960Y0102120D01*
X0180191Y0101938D01*
X0180427Y0101761D01*
X0180668Y0101591D01*
X0180912Y0101426D01*
X0181160Y0101268D01*
X0181412Y0101115D01*
X0181668Y0100969D01*
X0181927Y0100829D01*
X0182190Y0100695D01*
X0182455Y0100568D01*
X0182724Y0100447D01*
X0182996Y0100333D01*
X0183270Y0100226D01*
X0183547Y0100125D01*
X0183826Y0100031D01*
X0184108Y0099944D01*
X0184391Y0099864D01*
X0184677Y0099791D01*
X0184964Y0099725D01*
X0185253Y0099666D01*
X0185543Y0099614D01*
X0185834Y0099569D01*
X0186126Y0099531D01*
X0186419Y0099501D01*
X0186713Y0099477D01*
X0187007Y0099461D01*
X0187301Y0099452D01*
X0187596Y0099450D01*
X0187891Y0099456D01*
X0188185Y0099468D01*
X0188479Y0099488D01*
X0188772Y0099515D01*
X0189065Y0099549D01*
X0189357Y0099590D01*
X0189647Y0099639D01*
X0189937Y0099694D01*
X0190224Y0099756D01*
X0190511Y0099826D01*
X0190795Y0099903D01*
X0191078Y0099986D01*
X0191358Y0100076D01*
X0191636Y0100173D01*
X0191912Y0100277D01*
X0192185Y0100388D01*
X0192455Y0100505D01*
X0192723Y0100629D01*
X0192987Y0100759D01*
X0193248Y0100896D01*
X0193505Y0101039D01*
X0193759Y0101189D01*
X0194010Y0101344D01*
X0194256Y0101506D01*
X0194498Y0101673D01*
X0194736Y0101847D01*
X0194970Y0102026D01*
X0195200Y0102211D01*
X0195424Y0102401D01*
X0195645Y0102597D01*
X0195860Y0102798D01*
X0196070Y0103005D01*
X0196275Y0103216D01*
X0196475Y0103433D01*
X0196670Y0103654D01*
X0196859Y0103880D01*
X0197042Y0104110D01*
X0197220Y0104345D01*
X0197392Y0104585D01*
X0197558Y0104828D01*
X0197718Y0105075D01*
X0197872Y0105326D01*
X0198020Y0105581D01*
X0198162Y0105840D01*
X0198297Y0106101D01*
X0198426Y0106366D01*
X0198548Y0106634D01*
X0198664Y0106905D01*
X0198773Y0107179D01*
X0198875Y0107455D01*
X0198970Y0107734D01*
X0199059Y0108015D01*
X0199141Y0108298D01*
X0199216Y0108583D01*
X0199283Y0108870D01*
X0199344Y0109158D01*
X0199398Y0109448D01*
X0199445Y0109739D01*
X0199484Y0110031D01*
X0199516Y0110323D01*
X0199542Y0110617D01*
X0199560Y0110911D01*
X0199570Y0111205D01*
X0199574Y0111500D01*
X0199570Y0111795D01*
X0199560Y0112089D01*
X0199542Y0112383D01*
X0199516Y0112677D01*
X0199484Y0112969D01*
X0199445Y0113261D01*
X0199398Y0113552D01*
X0199344Y0113842D01*
X0199283Y0114130D01*
X0199216Y0114417D01*
X0199141Y0114702D01*
X0199059Y0114985D01*
X0198970Y0115266D01*
X0198875Y0115545D01*
X0198773Y0115821D01*
X0198664Y0116095D01*
X0198548Y0116366D01*
X0198426Y0116634D01*
X0198297Y0116899D01*
X0198162Y0117160D01*
X0198020Y0117419D01*
X0197872Y0117674D01*
X0197718Y0117925D01*
X0197558Y0118172D01*
X0197392Y0118415D01*
X0197220Y0118655D01*
X0197042Y0118890D01*
X0196859Y0119120D01*
X0196670Y0119346D01*
X0196475Y0119567D01*
X0196275Y0119784D01*
X0196070Y0119995D01*
X0195860Y0120202D01*
X0195645Y0120403D01*
X0195424Y0120599D01*
X0195200Y0120789D01*
X0194970Y0120974D01*
X0194736Y0121153D01*
X0194498Y0121327D01*
X0194256Y0121494D01*
X0194010Y0121656D01*
X0193759Y0121811D01*
X0193505Y0121961D01*
X0193248Y0122104D01*
X0192987Y0122241D01*
X0192723Y0122371D01*
X0192455Y0122495D01*
X0192185Y0122612D01*
X0191912Y0122723D01*
X0191636Y0122827D01*
X0191358Y0122924D01*
X0191078Y0123014D01*
X0190795Y0123097D01*
X0190511Y0123174D01*
X0190224Y0123244D01*
X0189937Y0123306D01*
X0189647Y0123361D01*
X0189357Y0123410D01*
X0189065Y0123451D01*
X0188772Y0123485D01*
X0188479Y0123512D01*
X0188185Y0123532D01*
X0187891Y0123544D01*
X0187596Y0123550D01*
X0187301Y0123548D01*
X0187007Y0123539D01*
X0186713Y0123523D01*
X0186419Y0123499D01*
X0186126Y0123469D01*
X0185834Y0123431D01*
X0185543Y0123386D01*
X0185253Y0123334D01*
X0184964Y0123275D01*
X0184677Y0123209D01*
X0184391Y0123136D01*
X0184108Y0123056D01*
X0183826Y0122969D01*
X0183547Y0122875D01*
X0183270Y0122774D01*
X0182996Y0122667D01*
X0182724Y0122553D01*
X0182455Y0122432D01*
X0182190Y0122305D01*
X0181927Y0122171D01*
X0181668Y0122031D01*
X0181412Y0121885D01*
X0181160Y0121732D01*
X0180912Y0121574D01*
X0180668Y0121409D01*
X0180427Y0121239D01*
X0180191Y0121062D01*
X0179960Y0120880D01*
X0179733Y0120692D01*
X0179510Y0120499D01*
X0179293Y0120300D01*
X0179080Y0120097D01*
X0178872Y0119888D01*
X0178670Y0119674D01*
X0178473Y0119455D01*
X0178281Y0119231D01*
X0178095Y0119003D01*
X0177914Y0118770D01*
X0177195Y0119309D01*
X0177194Y0119310D01*
X0177388Y0119560D01*
X0177588Y0119806D01*
X0177794Y0120046D01*
X0178006Y0120281D01*
X0178224Y0120511D01*
X0178447Y0120736D01*
X0178675Y0120955D01*
X0178909Y0121169D01*
X0179148Y0121377D01*
X0179392Y0121579D01*
X0179641Y0121774D01*
X0179895Y0121964D01*
X0180153Y0122147D01*
X0180415Y0122324D01*
X0180682Y0122495D01*
X0180953Y0122659D01*
X0181228Y0122816D01*
X0181506Y0122967D01*
X0181789Y0123111D01*
X0182074Y0123247D01*
X0182363Y0123377D01*
X0182655Y0123500D01*
X0182950Y0123615D01*
X0183247Y0123723D01*
X0183548Y0123824D01*
X0183850Y0123918D01*
X0184155Y0124004D01*
X0184462Y0124083D01*
X0184770Y0124154D01*
X0185080Y0124217D01*
X0185392Y0124273D01*
X0185705Y0124322D01*
X0186019Y0124362D01*
X0186334Y0124395D01*
X0186650Y0124420D01*
X0186966Y0124438D01*
X0187282Y0124448D01*
X0187599Y0124450D01*
X0187916Y0124444D01*
X0188232Y0124431D01*
X0188548Y0124409D01*
X0188863Y0124381D01*
X0189178Y0124344D01*
X0189491Y0124300D01*
X0189804Y0124248D01*
X0190115Y0124188D01*
X0190424Y0124121D01*
X0190732Y0124046D01*
X0191038Y0123964D01*
X0191341Y0123875D01*
X0191643Y0123778D01*
X0191942Y0123673D01*
X0192238Y0123561D01*
X0192532Y0123443D01*
X0192822Y0123317D01*
X0193109Y0123184D01*
X0193394Y0123043D01*
X0193674Y0122896D01*
X0193951Y0122743D01*
X0194224Y0122582D01*
X0194493Y0122415D01*
X0194758Y0122241D01*
X0195018Y0122061D01*
X0195274Y0121875D01*
X0195525Y0121682D01*
X0195772Y0121484D01*
X0196014Y0121279D01*
X0196250Y0121069D01*
X0196482Y0120852D01*
X0196707Y0120630D01*
X0196928Y0120403D01*
X0197143Y0120171D01*
X0197352Y0119933D01*
X0197555Y0119690D01*
X0197753Y0119442D01*
X0197944Y0119190D01*
X0198129Y0118933D01*
X0198307Y0118671D01*
X0198479Y0118405D01*
X0198645Y0118136D01*
X0198804Y0117862D01*
X0198956Y0117584D01*
X0199101Y0117303D01*
X0199240Y0117018D01*
X0199371Y0116730D01*
X0199495Y0116438D01*
X0199613Y0116144D01*
X0199723Y0115847D01*
X0199825Y0115548D01*
X0199920Y0115246D01*
X0200008Y0114942D01*
X0200089Y0114635D01*
X0200162Y0114327D01*
X0200227Y0114017D01*
X0200285Y0113706D01*
X0200335Y0113393D01*
X0200377Y0113079D01*
X0200412Y0112765D01*
X0200439Y0112449D01*
X0200459Y0112133D01*
X0200470Y0111817D01*
X0200474Y0111500D01*
X0200470Y0111183D01*
X0200459Y0110867D01*
X0200439Y0110551D01*
X0200412Y0110235D01*
X0200377Y0109921D01*
X0200335Y0109607D01*
X0200285Y0109294D01*
X0200227Y0108983D01*
X0200162Y0108673D01*
X0200089Y0108365D01*
X0200008Y0108058D01*
X0199920Y0107754D01*
X0199825Y0107452D01*
X0199723Y0107153D01*
X0199613Y0106856D01*
X0199495Y0106562D01*
X0199371Y0106270D01*
X0199240Y0105982D01*
X0199101Y0105697D01*
X0198956Y0105416D01*
X0198804Y0105138D01*
X0198645Y0104864D01*
X0198479Y0104595D01*
X0198307Y0104329D01*
X0198129Y0104067D01*
X0197944Y0103810D01*
X0197753Y0103558D01*
X0197555Y0103310D01*
X0197352Y0103067D01*
X0197143Y0102829D01*
X0196928Y0102597D01*
X0196707Y0102370D01*
X0196482Y0102148D01*
X0196250Y0101931D01*
X0196014Y0101721D01*
X0195772Y0101516D01*
X0195525Y0101318D01*
X0195274Y0101125D01*
X0195018Y0100939D01*
X0194758Y0100759D01*
X0194493Y0100585D01*
X0194224Y0100418D01*
X0193951Y0100257D01*
X0193674Y0100104D01*
X0193394Y0099957D01*
X0193109Y0099816D01*
X0192822Y0099683D01*
X0192532Y0099557D01*
X0192238Y0099439D01*
X0191942Y0099327D01*
X0191643Y0099222D01*
X0191341Y0099125D01*
X0191038Y0099036D01*
X0190732Y0098954D01*
X0190424Y0098879D01*
X0190115Y0098812D01*
X0189804Y0098752D01*
X0189491Y0098700D01*
X0189178Y0098656D01*
X0188863Y0098619D01*
X0188548Y0098591D01*
X0188232Y0098569D01*
X0187916Y0098556D01*
X0187599Y0098550D01*
X0187282Y0098552D01*
X0186966Y0098562D01*
X0186650Y0098580D01*
X0186334Y0098605D01*
X0186019Y0098638D01*
X0185705Y0098678D01*
X0185392Y0098727D01*
X0185080Y0098783D01*
X0184770Y0098846D01*
X0184462Y0098917D01*
X0184155Y0098996D01*
X0183850Y0099082D01*
X0183548Y0099176D01*
X0183247Y0099277D01*
X0182950Y0099385D01*
X0182655Y0099500D01*
X0182363Y0099623D01*
X0182074Y0099753D01*
X0181789Y0099889D01*
X0181506Y0100033D01*
X0181228Y0100184D01*
X0180953Y0100341D01*
X0180682Y0100505D01*
X0180415Y0100676D01*
X0180153Y0100853D01*
X0179895Y0101036D01*
X0179641Y0101226D01*
X0179392Y0101421D01*
X0179148Y0101623D01*
X0178909Y0101831D01*
X0178675Y0102045D01*
X0178447Y0102264D01*
X0178224Y0102489D01*
X0178006Y0102719D01*
X0177794Y0102954D01*
X0177588Y0103194D01*
X0177388Y0103440D01*
X0177194Y0103690D01*
X0177269Y0103746D01*
X0177462Y0103498D01*
X0177661Y0103254D01*
X0177865Y0103016D01*
X0178075Y0102782D01*
X0178291Y0102554D01*
X0178513Y0102331D01*
X0178740Y0102113D01*
X0178972Y0101901D01*
X0179209Y0101695D01*
X0179451Y0101494D01*
X0179699Y0101300D01*
X0179950Y0101112D01*
X0180207Y0100930D01*
X0180467Y0100754D01*
X0180732Y0100585D01*
X0181001Y0100422D01*
X0181274Y0100266D01*
X0181550Y0100116D01*
X0181830Y0099974D01*
X0182114Y0099838D01*
X0182401Y0099709D01*
X0182691Y0099587D01*
X0182983Y0099473D01*
X0183279Y0099365D01*
X0183577Y0099265D01*
X0183877Y0099172D01*
X0184180Y0099087D01*
X0184484Y0099009D01*
X0184790Y0098938D01*
X0185098Y0098875D01*
X0185408Y0098819D01*
X0185718Y0098771D01*
X0186030Y0098731D01*
X0186343Y0098698D01*
X0186656Y0098673D01*
X0186970Y0098656D01*
X0187284Y0098646D01*
X0187599Y0098644D01*
X0187913Y0098650D01*
X0188227Y0098663D01*
X0188541Y0098684D01*
X0188854Y0098713D01*
X0189166Y0098749D01*
X0189477Y0098793D01*
X0189787Y0098845D01*
X0190096Y0098904D01*
X0190403Y0098971D01*
X0190709Y0099045D01*
X0191012Y0099126D01*
X0191314Y0099215D01*
X0191613Y0099312D01*
X0191910Y0099415D01*
X0192204Y0099526D01*
X0192495Y0099644D01*
X0192784Y0099769D01*
X0193069Y0099901D01*
X0193351Y0100040D01*
X0193629Y0100186D01*
X0193904Y0100339D01*
X0194175Y0100498D01*
X0194442Y0100664D01*
X0194705Y0100837D01*
X0194964Y0101015D01*
X0195218Y0101200D01*
X0195467Y0101392D01*
X0195712Y0101589D01*
X0195952Y0101792D01*
X0196187Y0102001D01*
X0196417Y0102216D01*
X0196641Y0102436D01*
X0196860Y0102661D01*
X0197073Y0102892D01*
X0197281Y0103128D01*
X0197483Y0103370D01*
X0197678Y0103615D01*
X0197868Y0103866D01*
X0198052Y0104121D01*
X0198229Y0104381D01*
X0198400Y0104645D01*
X0198564Y0104913D01*
X0198722Y0105185D01*
X0198873Y0105460D01*
X0199017Y0105740D01*
X0199155Y0106022D01*
X0199285Y0106308D01*
X0199409Y0106597D01*
X0199525Y0106890D01*
X0199634Y0107184D01*
X0199736Y0107482D01*
X0199830Y0107781D01*
X0199918Y0108084D01*
X0199998Y0108388D01*
X0200070Y0108693D01*
X0200135Y0109001D01*
X0200192Y0109310D01*
X0200242Y0109621D01*
X0200284Y0109932D01*
X0200319Y0110245D01*
X0200345Y0110558D01*
X0200365Y0110872D01*
X0200376Y0111186D01*
X0200380Y0111500D01*
X0200376Y0111814D01*
X0200365Y0112128D01*
X0200345Y0112442D01*
X0200319Y0112755D01*
X0200284Y0113068D01*
X0200242Y0113379D01*
X0200192Y0113690D01*
X0200135Y0113999D01*
X0200070Y0114307D01*
X0199998Y0114612D01*
X0199918Y0114916D01*
X0199830Y0115219D01*
X0199736Y0115518D01*
X0199634Y0115816D01*
X0199525Y0116110D01*
X0199409Y0116403D01*
X0199285Y0116692D01*
X0199155Y0116978D01*
X0199017Y0117260D01*
X0198873Y0117540D01*
X0198722Y0117815D01*
X0198564Y0118087D01*
X0198400Y0118355D01*
X0198229Y0118619D01*
X0198052Y0118879D01*
X0197868Y0119134D01*
X0197678Y0119385D01*
X0197483Y0119630D01*
X0197281Y0119872D01*
X0197073Y0120108D01*
X0196860Y0120339D01*
X0196641Y0120564D01*
X0196417Y0120784D01*
X0196187Y0120999D01*
X0195952Y0121208D01*
X0195712Y0121411D01*
X0195467Y0121608D01*
X0195218Y0121800D01*
X0194964Y0121985D01*
X0194705Y0122163D01*
X0194442Y0122336D01*
X0194175Y0122502D01*
X0193904Y0122661D01*
X0193629Y0122814D01*
X0193351Y0122960D01*
X0193069Y0123099D01*
X0192784Y0123231D01*
X0192495Y0123356D01*
X0192204Y0123474D01*
X0191910Y0123585D01*
X0191613Y0123688D01*
X0191314Y0123785D01*
X0191012Y0123874D01*
X0190709Y0123955D01*
X0190403Y0124029D01*
X0190096Y0124096D01*
X0189787Y0124155D01*
X0189477Y0124207D01*
X0189166Y0124251D01*
X0188854Y0124287D01*
X0188541Y0124316D01*
X0188227Y0124337D01*
X0187913Y0124350D01*
X0187599Y0124356D01*
X0187284Y0124354D01*
X0186970Y0124344D01*
X0186656Y0124327D01*
X0186343Y0124302D01*
X0186030Y0124269D01*
X0185718Y0124229D01*
X0185408Y0124181D01*
X0185098Y0124125D01*
X0184790Y0124062D01*
X0184484Y0123991D01*
X0184180Y0123913D01*
X0183877Y0123828D01*
X0183577Y0123735D01*
X0183279Y0123635D01*
X0182983Y0123527D01*
X0182691Y0123413D01*
X0182401Y0123291D01*
X0182114Y0123162D01*
X0181830Y0123026D01*
X0181550Y0122884D01*
X0181274Y0122734D01*
X0181001Y0122578D01*
X0180732Y0122415D01*
X0180467Y0122246D01*
X0180207Y0122070D01*
X0179950Y0121888D01*
X0179699Y0121700D01*
X0179451Y0121506D01*
X0179209Y0121305D01*
X0178972Y0121099D01*
X0178740Y0120887D01*
X0178513Y0120669D01*
X0178291Y0120446D01*
X0178075Y0120218D01*
X0177865Y0119984D01*
X0177661Y0119746D01*
X0177462Y0119502D01*
X0177269Y0119254D01*
X0177344Y0119197D01*
X0177536Y0119444D01*
X0177733Y0119686D01*
X0177936Y0119923D01*
X0178145Y0120154D01*
X0178359Y0120381D01*
X0178579Y0120603D01*
X0178804Y0120819D01*
X0179035Y0121029D01*
X0179270Y0121234D01*
X0179511Y0121433D01*
X0179756Y0121626D01*
X0180006Y0121812D01*
X0180260Y0121993D01*
X0180519Y0122168D01*
X0180782Y0122336D01*
X0181049Y0122497D01*
X0181320Y0122652D01*
X0181594Y0122801D01*
X0181872Y0122942D01*
X0182154Y0123077D01*
X0182438Y0123205D01*
X0182726Y0123326D01*
X0183017Y0123440D01*
X0183310Y0123546D01*
X0183606Y0123646D01*
X0183904Y0123738D01*
X0184204Y0123823D01*
X0184507Y0123900D01*
X0184811Y0123970D01*
X0185116Y0124033D01*
X0185423Y0124088D01*
X0185732Y0124136D01*
X0186041Y0124176D01*
X0186352Y0124208D01*
X0186663Y0124233D01*
X0186974Y0124250D01*
X0187286Y0124260D01*
X0187598Y0124262D01*
X0187910Y0124256D01*
X0188222Y0124243D01*
X0188533Y0124222D01*
X0188844Y0124194D01*
X0189154Y0124157D01*
X0189463Y0124114D01*
X0189771Y0124063D01*
X0190078Y0124004D01*
X0190382Y0123938D01*
X0190686Y0123864D01*
X0190987Y0123783D01*
X0191286Y0123695D01*
X0191583Y0123599D01*
X0191878Y0123496D01*
X0192170Y0123386D01*
X0192459Y0123269D01*
X0192746Y0123145D01*
X0193029Y0123014D01*
X0193309Y0122876D01*
X0193585Y0122731D01*
X0193858Y0122579D01*
X0194127Y0122421D01*
X0194392Y0122256D01*
X0194653Y0122085D01*
X0194909Y0121908D01*
X0195162Y0121724D01*
X0195409Y0121534D01*
X0195652Y0121339D01*
X0195891Y0121137D01*
X0196124Y0120929D01*
X0196352Y0120716D01*
X0196574Y0120498D01*
X0196792Y0120274D01*
X0197003Y0120045D01*
X0197209Y0119810D01*
X0197410Y0119571D01*
X0197604Y0119327D01*
X0197792Y0119078D01*
X0197975Y0118825D01*
X0198151Y0118567D01*
X0198320Y0118305D01*
X0198483Y0118039D01*
X0198640Y0117769D01*
X0198790Y0117495D01*
X0198933Y0117218D01*
X0199070Y0116938D01*
X0199199Y0116654D01*
X0199322Y0116367D01*
X0199437Y0116077D01*
X0199545Y0115784D01*
X0199647Y0115489D01*
X0199741Y0115191D01*
X0199827Y0114891D01*
X0199906Y0114590D01*
X0199978Y0114286D01*
X0200043Y0113981D01*
X0200100Y0113674D01*
X0200149Y0113366D01*
X0200191Y0113056D01*
X0200225Y0112746D01*
X0200252Y0112435D01*
X0200271Y0112124D01*
X0200282Y0111812D01*
X0200286Y0111500D01*
X0200282Y0111188D01*
X0200271Y0110876D01*
X0200252Y0110565D01*
X0200225Y0110254D01*
X0200191Y0109944D01*
X0200149Y0109634D01*
X0200100Y0109326D01*
X0200043Y0109019D01*
X0199978Y0108714D01*
X0199906Y0108410D01*
X0199827Y0108109D01*
X0199741Y0107809D01*
X0199647Y0107511D01*
X0199545Y0107216D01*
X0199437Y0106923D01*
X0199322Y0106633D01*
X0199199Y0106346D01*
X0199070Y0106062D01*
X0198933Y0105782D01*
X0198790Y0105505D01*
X0198640Y0105231D01*
X0198483Y0104961D01*
X0198320Y0104695D01*
X0198151Y0104433D01*
X0197975Y0104175D01*
X0197792Y0103922D01*
X0197604Y0103673D01*
X0197410Y0103429D01*
X0197209Y0103190D01*
X0197003Y0102955D01*
X0196792Y0102726D01*
X0196574Y0102502D01*
X0196352Y0102284D01*
X0196124Y0102071D01*
X0195891Y0101863D01*
X0195652Y0101661D01*
X0195409Y0101466D01*
X0195162Y0101276D01*
X0194909Y0101092D01*
X0194653Y0100915D01*
X0194392Y0100744D01*
X0194127Y0100579D01*
X0193858Y0100421D01*
X0193585Y0100269D01*
X0193309Y0100124D01*
X0193029Y0099986D01*
X0192746Y0099855D01*
X0192459Y0099731D01*
X0192170Y0099614D01*
X0191878Y0099504D01*
X0191583Y0099401D01*
X0191286Y0099305D01*
X0190987Y0099217D01*
X0190686Y0099136D01*
X0190382Y0099062D01*
X0190078Y0098996D01*
X0189771Y0098937D01*
X0189463Y0098886D01*
X0189154Y0098843D01*
X0188844Y0098806D01*
X0188533Y0098778D01*
X0188222Y0098757D01*
X0187910Y0098744D01*
X0187598Y0098738D01*
X0187286Y0098740D01*
X0186974Y0098750D01*
X0186663Y0098767D01*
X0186352Y0098792D01*
X0186041Y0098824D01*
X0185732Y0098864D01*
X0185423Y0098912D01*
X0185116Y0098967D01*
X0184811Y0099030D01*
X0184507Y0099100D01*
X0184204Y0099177D01*
X0183904Y0099262D01*
X0183606Y0099354D01*
X0183310Y0099454D01*
X0183017Y0099560D01*
X0182726Y0099674D01*
X0182438Y0099795D01*
X0182154Y0099923D01*
X0181872Y0100058D01*
X0181594Y0100199D01*
X0181320Y0100348D01*
X0181049Y0100503D01*
X0180782Y0100664D01*
X0180519Y0100832D01*
X0180260Y0101007D01*
X0180006Y0101188D01*
X0179756Y0101374D01*
X0179511Y0101567D01*
X0179270Y0101766D01*
X0179035Y0101971D01*
X0178804Y0102181D01*
X0178579Y0102397D01*
X0178359Y0102619D01*
X0178145Y0102846D01*
X0177936Y0103077D01*
X0177733Y0103314D01*
X0177536Y0103556D01*
X0177344Y0103803D01*
X0177420Y0103859D01*
X0177610Y0103614D01*
X0177805Y0103374D01*
X0178007Y0103139D01*
X0178214Y0102909D01*
X0178427Y0102684D01*
X0178645Y0102464D01*
X0178869Y0102250D01*
X0179098Y0102041D01*
X0179331Y0101838D01*
X0179570Y0101640D01*
X0179813Y0101449D01*
X0180062Y0101263D01*
X0180314Y0101084D01*
X0180571Y0100911D01*
X0180832Y0100744D01*
X0181097Y0100583D01*
X0181366Y0100430D01*
X0181638Y0100282D01*
X0181914Y0100142D01*
X0182194Y0100008D01*
X0182476Y0099881D01*
X0182762Y0099761D01*
X0183050Y0099648D01*
X0183341Y0099542D01*
X0183635Y0099444D01*
X0183931Y0099352D01*
X0184229Y0099268D01*
X0184529Y0099191D01*
X0184831Y0099122D01*
X0185134Y0099059D01*
X0185439Y0099005D01*
X0185745Y0098957D01*
X0186053Y0098918D01*
X0186361Y0098886D01*
X0186669Y0098861D01*
X0186979Y0098844D01*
X0187288Y0098834D01*
X0187598Y0098832D01*
X0187908Y0098838D01*
X0188217Y0098851D01*
X0188526Y0098872D01*
X0188835Y0098900D01*
X0189142Y0098936D01*
X0189449Y0098979D01*
X0189755Y0099030D01*
X0190059Y0099088D01*
X0190362Y0099154D01*
X0190663Y0099227D01*
X0190962Y0099307D01*
X0191259Y0099395D01*
X0191554Y0099490D01*
X0191846Y0099592D01*
X0192136Y0099701D01*
X0192423Y0099818D01*
X0192707Y0099941D01*
X0192988Y0100071D01*
X0193266Y0100208D01*
X0193540Y0100352D01*
X0193811Y0100502D01*
X0194078Y0100659D01*
X0194341Y0100823D01*
X0194600Y0100993D01*
X0194855Y0101169D01*
X0195106Y0101351D01*
X0195351Y0101540D01*
X0195593Y0101734D01*
X0195829Y0101934D01*
X0196060Y0102140D01*
X0196287Y0102352D01*
X0196508Y0102569D01*
X0196723Y0102791D01*
X0196934Y0103018D01*
X0197138Y0103251D01*
X0197337Y0103489D01*
X0197530Y0103731D01*
X0197717Y0103978D01*
X0197898Y0104229D01*
X0198072Y0104485D01*
X0198241Y0104745D01*
X0198403Y0105009D01*
X0198558Y0105277D01*
X0198707Y0105549D01*
X0198849Y0105824D01*
X0198985Y0106103D01*
X0199113Y0106384D01*
X0199235Y0106669D01*
X0199349Y0106957D01*
X0199457Y0107248D01*
X0199557Y0107541D01*
X0199651Y0107836D01*
X0199737Y0108134D01*
X0199815Y0108433D01*
X0199886Y0108735D01*
X0199950Y0109038D01*
X0200007Y0109342D01*
X0200056Y0109648D01*
X0200097Y0109955D01*
X0200131Y0110263D01*
X0200158Y0110572D01*
X0200177Y0110881D01*
X0200188Y0111190D01*
X0200192Y0111500D01*
X0200188Y0111810D01*
X0200177Y0112119D01*
X0200158Y0112428D01*
X0200131Y0112737D01*
X0200097Y0113045D01*
X0200056Y0113352D01*
X0200007Y0113658D01*
X0199950Y0113962D01*
X0199886Y0114265D01*
X0199815Y0114567D01*
X0199737Y0114866D01*
X0199651Y0115164D01*
X0199557Y0115459D01*
X0199457Y0115752D01*
X0199349Y0116043D01*
X0199235Y0116331D01*
X0199113Y0116616D01*
X0198985Y0116897D01*
X0198849Y0117176D01*
X0198707Y0117451D01*
X0198558Y0117723D01*
X0198403Y0117991D01*
X0198241Y0118255D01*
X0198072Y0118515D01*
X0197898Y0118771D01*
X0197717Y0119022D01*
X0197530Y0119269D01*
X0197337Y0119511D01*
X0197138Y0119749D01*
X0196934Y0119982D01*
X0196723Y0120209D01*
X0196508Y0120431D01*
X0196287Y0120648D01*
X0196060Y0120860D01*
X0195829Y0121066D01*
X0195593Y0121266D01*
X0195351Y0121460D01*
X0195106Y0121649D01*
X0194855Y0121831D01*
X0194600Y0122007D01*
X0194341Y0122177D01*
X0194078Y0122341D01*
X0193811Y0122498D01*
X0193540Y0122648D01*
X0193266Y0122792D01*
X0192988Y0122929D01*
X0192707Y0123059D01*
X0192423Y0123182D01*
X0192136Y0123299D01*
X0191846Y0123408D01*
X0191554Y0123510D01*
X0191259Y0123605D01*
X0190962Y0123693D01*
X0190663Y0123773D01*
X0190362Y0123846D01*
X0190059Y0123912D01*
X0189755Y0123970D01*
X0189449Y0124021D01*
X0189142Y0124064D01*
X0188835Y0124100D01*
X0188526Y0124128D01*
X0188217Y0124149D01*
X0187908Y0124162D01*
X0187598Y0124168D01*
X0187288Y0124166D01*
X0186979Y0124156D01*
X0186669Y0124139D01*
X0186361Y0124114D01*
X0186053Y0124082D01*
X0185745Y0124043D01*
X0185439Y0123995D01*
X0185134Y0123941D01*
X0184831Y0123878D01*
X0184529Y0123809D01*
X0184229Y0123732D01*
X0183931Y0123648D01*
X0183635Y0123556D01*
X0183341Y0123458D01*
X0183050Y0123352D01*
X0182762Y0123239D01*
X0182476Y0123119D01*
X0182194Y0122992D01*
X0181914Y0122858D01*
X0181638Y0122718D01*
X0181366Y0122570D01*
X0181097Y0122417D01*
X0180832Y0122256D01*
X0180571Y0122089D01*
X0180314Y0121916D01*
X0180062Y0121737D01*
X0179813Y0121551D01*
X0179570Y0121360D01*
X0179331Y0121162D01*
X0179098Y0120959D01*
X0178869Y0120750D01*
X0178645Y0120536D01*
X0178427Y0120316D01*
X0178214Y0120091D01*
X0178007Y0119861D01*
X0177805Y0119626D01*
X0177610Y0119386D01*
X0177420Y0119141D01*
X0177495Y0119084D01*
X0177683Y0119327D01*
X0177878Y0119566D01*
X0178078Y0119799D01*
X0178283Y0120027D01*
X0178495Y0120251D01*
X0178711Y0120469D01*
X0178933Y0120682D01*
X0179160Y0120889D01*
X0179392Y0121091D01*
X0179629Y0121287D01*
X0179871Y0121477D01*
X0180117Y0121661D01*
X0180368Y0121839D01*
X0180623Y0122011D01*
X0180882Y0122176D01*
X0181145Y0122336D01*
X0181412Y0122488D01*
X0181682Y0122635D01*
X0181956Y0122774D01*
X0182233Y0122907D01*
X0182514Y0123033D01*
X0182797Y0123152D01*
X0183084Y0123264D01*
X0183373Y0123369D01*
X0183664Y0123467D01*
X0183958Y0123558D01*
X0184254Y0123641D01*
X0184551Y0123718D01*
X0184851Y0123787D01*
X0185152Y0123848D01*
X0185455Y0123903D01*
X0185759Y0123949D01*
X0186064Y0123989D01*
X0186369Y0124021D01*
X0186676Y0124045D01*
X0186983Y0124062D01*
X0187290Y0124072D01*
X0187598Y0124074D01*
X0187905Y0124068D01*
X0188212Y0124055D01*
X0188519Y0124035D01*
X0188825Y0124006D01*
X0189131Y0123971D01*
X0189435Y0123928D01*
X0189738Y0123877D01*
X0190040Y0123820D01*
X0190341Y0123754D01*
X0190640Y0123682D01*
X0190936Y0123602D01*
X0191231Y0123515D01*
X0191524Y0123421D01*
X0191814Y0123319D01*
X0192102Y0123211D01*
X0192387Y0123096D01*
X0192669Y0122973D01*
X0192948Y0122844D01*
X0193224Y0122708D01*
X0193496Y0122565D01*
X0193765Y0122416D01*
X0194030Y0122260D01*
X0194291Y0122098D01*
X0194548Y0121929D01*
X0194801Y0121754D01*
X0195049Y0121573D01*
X0195293Y0121386D01*
X0195533Y0121193D01*
X0195767Y0120995D01*
X0195997Y0120790D01*
X0196222Y0120580D01*
X0196441Y0120365D01*
X0196655Y0120144D01*
X0196864Y0119919D01*
X0197067Y0119688D01*
X0197264Y0119452D01*
X0197456Y0119211D01*
X0197641Y0118966D01*
X0197821Y0118717D01*
X0197994Y0118463D01*
X0198161Y0118205D01*
X0198322Y0117943D01*
X0198476Y0117677D01*
X0198624Y0117407D01*
X0198765Y0117134D01*
X0198900Y0116857D01*
X0199027Y0116578D01*
X0199148Y0116295D01*
X0199262Y0116009D01*
X0199368Y0115721D01*
X0199468Y0115430D01*
X0199561Y0115137D01*
X0199646Y0114841D01*
X0199724Y0114544D01*
X0199795Y0114245D01*
X0199858Y0113944D01*
X0199914Y0113642D01*
X0199963Y0113338D01*
X0200004Y0113033D01*
X0200038Y0112728D01*
X0200064Y0112422D01*
X0200083Y0112115D01*
X0200094Y0111807D01*
X0200098Y0111500D01*
X0200094Y0111193D01*
X0200083Y0110885D01*
X0200064Y0110578D01*
X0200038Y0110272D01*
X0200004Y0109967D01*
X0199963Y0109662D01*
X0199914Y0109358D01*
X0199858Y0109056D01*
X0199795Y0108755D01*
X0199724Y0108456D01*
X0199646Y0108159D01*
X0199561Y0107863D01*
X0199468Y0107570D01*
X0199368Y0107279D01*
X0199262Y0106991D01*
X0199148Y0106705D01*
X0199027Y0106422D01*
X0198900Y0106143D01*
X0198765Y0105866D01*
X0198624Y0105593D01*
X0198476Y0105323D01*
X0198322Y0105057D01*
X0198161Y0104795D01*
X0197994Y0104537D01*
X0197821Y0104283D01*
X0197641Y0104034D01*
X0197456Y0103789D01*
X0197264Y0103548D01*
X0197067Y0103312D01*
X0196864Y0103081D01*
X0196655Y0102856D01*
X0196441Y0102635D01*
X0196222Y0102420D01*
X0195997Y0102210D01*
X0195767Y0102005D01*
X0195533Y0101807D01*
X0195293Y0101614D01*
X0195049Y0101427D01*
X0194801Y0101246D01*
X0194548Y0101071D01*
X0194291Y0100902D01*
X0194030Y0100740D01*
X0193765Y0100584D01*
X0193496Y0100435D01*
X0193224Y0100292D01*
X0192948Y0100156D01*
X0192669Y0100027D01*
X0192387Y0099904D01*
X0192102Y0099789D01*
X0191814Y0099681D01*
X0191524Y0099579D01*
X0191231Y0099485D01*
X0190936Y0099398D01*
X0190640Y0099318D01*
X0190341Y0099246D01*
X0190040Y0099180D01*
X0189738Y0099123D01*
X0189435Y0099072D01*
X0189131Y0099029D01*
X0188825Y0098994D01*
X0188519Y0098965D01*
X0188212Y0098945D01*
X0187905Y0098932D01*
X0187598Y0098926D01*
X0187290Y0098928D01*
X0186983Y0098938D01*
X0186676Y0098955D01*
X0186369Y0098979D01*
X0186064Y0099011D01*
X0185759Y0099051D01*
X0185455Y0099097D01*
X0185152Y0099152D01*
X0184851Y0099213D01*
X0184551Y0099282D01*
X0184254Y0099359D01*
X0183958Y0099442D01*
X0183664Y0099533D01*
X0183373Y0099631D01*
X0183084Y0099736D01*
X0182797Y0099848D01*
X0182514Y0099967D01*
X0182233Y0100093D01*
X0181956Y0100226D01*
X0181682Y0100365D01*
X0181412Y0100512D01*
X0181145Y0100664D01*
X0180882Y0100824D01*
X0180623Y0100989D01*
X0180368Y0101161D01*
X0180117Y0101339D01*
X0179871Y0101523D01*
X0179629Y0101713D01*
X0179392Y0101909D01*
X0179160Y0102111D01*
X0178933Y0102318D01*
X0178711Y0102531D01*
X0178495Y0102749D01*
X0178283Y0102973D01*
X0178078Y0103201D01*
X0177878Y0103434D01*
X0177683Y0103673D01*
X0177495Y0103916D01*
X0177570Y0103972D01*
X0177757Y0103731D01*
X0177950Y0103494D01*
X0178149Y0103263D01*
X0178353Y0103036D01*
X0178562Y0102814D01*
X0178777Y0102598D01*
X0178998Y0102387D01*
X0179223Y0102181D01*
X0179453Y0101981D01*
X0179689Y0101786D01*
X0179928Y0101598D01*
X0180173Y0101415D01*
X0180422Y0101238D01*
X0180675Y0101068D01*
X0180932Y0100903D01*
X0181193Y0100745D01*
X0181458Y0100594D01*
X0181726Y0100449D01*
X0181998Y0100310D01*
X0182273Y0100178D01*
X0182552Y0100053D01*
X0182833Y0099935D01*
X0183117Y0099824D01*
X0183404Y0099720D01*
X0183693Y0099622D01*
X0183985Y0099532D01*
X0184278Y0099449D01*
X0184574Y0099374D01*
X0184871Y0099305D01*
X0185170Y0099244D01*
X0185471Y0099190D01*
X0185772Y0099144D01*
X0186075Y0099104D01*
X0186378Y0099073D01*
X0186683Y0099048D01*
X0186987Y0099032D01*
X0187292Y0099022D01*
X0187597Y0099020D01*
X0187902Y0099026D01*
X0188207Y0099039D01*
X0188512Y0099059D01*
X0188816Y0099087D01*
X0189119Y0099122D01*
X0189421Y0099165D01*
X0189722Y0099215D01*
X0190022Y0099272D01*
X0190320Y0099337D01*
X0190616Y0099409D01*
X0190911Y0099488D01*
X0191204Y0099575D01*
X0191494Y0099668D01*
X0191782Y0099769D01*
X0192068Y0099877D01*
X0192351Y0099991D01*
X0192631Y0100113D01*
X0192908Y0100241D01*
X0193181Y0100376D01*
X0193451Y0100517D01*
X0193718Y0100666D01*
X0193981Y0100820D01*
X0194240Y0100981D01*
X0194496Y0101149D01*
X0194747Y0101322D01*
X0194993Y0101502D01*
X0195235Y0101688D01*
X0195473Y0101879D01*
X0195706Y0102076D01*
X0195934Y0102279D01*
X0196157Y0102488D01*
X0196375Y0102701D01*
X0196587Y0102920D01*
X0196794Y0103144D01*
X0196996Y0103374D01*
X0197192Y0103608D01*
X0197382Y0103846D01*
X0197566Y0104090D01*
X0197744Y0104337D01*
X0197916Y0104589D01*
X0198082Y0104846D01*
X0198241Y0105106D01*
X0198395Y0105370D01*
X0198541Y0105637D01*
X0198681Y0105908D01*
X0198815Y0106183D01*
X0198941Y0106460D01*
X0199061Y0106741D01*
X0199174Y0107025D01*
X0199280Y0107311D01*
X0199379Y0107599D01*
X0199471Y0107890D01*
X0199555Y0108184D01*
X0199633Y0108479D01*
X0199703Y0108776D01*
X0199766Y0109074D01*
X0199822Y0109374D01*
X0199870Y0109676D01*
X0199911Y0109978D01*
X0199944Y0110281D01*
X0199970Y0110585D01*
X0199989Y0110890D01*
X0200000Y0111195D01*
X0200004Y0111500D01*
X0200000Y0111805D01*
X0199989Y0112110D01*
X0199970Y0112415D01*
X0199944Y0112719D01*
X0199911Y0113022D01*
X0199870Y0113324D01*
X0199822Y0113626D01*
X0199766Y0113926D01*
X0199703Y0114224D01*
X0199633Y0114521D01*
X0199555Y0114816D01*
X0199471Y0115110D01*
X0199379Y0115401D01*
X0199280Y0115689D01*
X0199174Y0115975D01*
X0199061Y0116259D01*
X0198941Y0116540D01*
X0198815Y0116817D01*
X0198681Y0117092D01*
X0198541Y0117363D01*
X0198395Y0117630D01*
X0198241Y0117894D01*
X0198082Y0118154D01*
X0197916Y0118411D01*
X0197744Y0118663D01*
X0197566Y0118910D01*
X0197382Y0119154D01*
X0197192Y0119392D01*
X0196996Y0119626D01*
X0196794Y0119856D01*
X0196587Y0120080D01*
X0196375Y0120299D01*
X0196157Y0120512D01*
X0195934Y0120721D01*
X0195706Y0120924D01*
X0195473Y0121121D01*
X0195235Y0121312D01*
X0194993Y0121498D01*
X0194747Y0121678D01*
X0194496Y0121851D01*
X0194240Y0122019D01*
X0193981Y0122180D01*
X0193718Y0122334D01*
X0193451Y0122483D01*
X0193181Y0122624D01*
X0192908Y0122759D01*
X0192631Y0122887D01*
X0192351Y0123009D01*
X0192068Y0123123D01*
X0191782Y0123231D01*
X0191494Y0123332D01*
X0191204Y0123425D01*
X0190911Y0123512D01*
X0190616Y0123591D01*
X0190320Y0123663D01*
X0190022Y0123728D01*
X0189722Y0123785D01*
X0189421Y0123835D01*
X0189119Y0123878D01*
X0188816Y0123913D01*
X0188512Y0123941D01*
X0188207Y0123961D01*
X0187902Y0123974D01*
X0187597Y0123980D01*
X0187292Y0123978D01*
X0186987Y0123968D01*
X0186683Y0123952D01*
X0186378Y0123927D01*
X0186075Y0123896D01*
X0185772Y0123856D01*
X0185471Y0123810D01*
X0185170Y0123756D01*
X0184871Y0123695D01*
X0184574Y0123626D01*
X0184278Y0123551D01*
X0183985Y0123468D01*
X0183693Y0123378D01*
X0183404Y0123280D01*
X0183117Y0123176D01*
X0182833Y0123065D01*
X0182552Y0122947D01*
X0182273Y0122822D01*
X0181998Y0122690D01*
X0181726Y0122551D01*
X0181458Y0122406D01*
X0181193Y0122255D01*
X0180932Y0122097D01*
X0180675Y0121932D01*
X0180422Y0121762D01*
X0180173Y0121585D01*
X0179928Y0121402D01*
X0179689Y0121214D01*
X0179453Y0121019D01*
X0179223Y0120819D01*
X0178998Y0120613D01*
X0178777Y0120402D01*
X0178562Y0120186D01*
X0178353Y0119964D01*
X0178149Y0119737D01*
X0177950Y0119506D01*
X0177757Y0119269D01*
X0177570Y0119028D01*
X0177645Y0118972D01*
X0177831Y0119211D01*
X0178022Y0119446D01*
X0178219Y0119675D01*
X0178422Y0119900D01*
X0178630Y0120121D01*
X0178844Y0120335D01*
X0179062Y0120545D01*
X0179286Y0120749D01*
X0179514Y0120948D01*
X0179748Y0121141D01*
X0179986Y0121328D01*
X0180228Y0121509D01*
X0180475Y0121685D01*
X0180726Y0121854D01*
X0180982Y0122017D01*
X0181241Y0122174D01*
X0181504Y0122324D01*
X0181770Y0122468D01*
X0182040Y0122606D01*
X0182313Y0122737D01*
X0182589Y0122861D01*
X0182869Y0122978D01*
X0183151Y0123088D01*
X0183435Y0123192D01*
X0183722Y0123288D01*
X0184012Y0123378D01*
X0184303Y0123460D01*
X0184596Y0123535D01*
X0184892Y0123603D01*
X0185188Y0123664D01*
X0185486Y0123717D01*
X0185786Y0123763D01*
X0186086Y0123802D01*
X0186387Y0123834D01*
X0186689Y0123858D01*
X0186992Y0123875D01*
X0187294Y0123884D01*
X0187597Y0123886D01*
X0187900Y0123880D01*
X0188202Y0123867D01*
X0188505Y0123847D01*
X0188806Y0123819D01*
X0189107Y0123784D01*
X0189407Y0123742D01*
X0189706Y0123692D01*
X0190003Y0123635D01*
X0190299Y0123571D01*
X0190593Y0123500D01*
X0190886Y0123421D01*
X0191176Y0123335D01*
X0191465Y0123242D01*
X0191750Y0123143D01*
X0192034Y0123036D01*
X0192314Y0122922D01*
X0192592Y0122802D01*
X0192867Y0122674D01*
X0193139Y0122540D01*
X0193407Y0122400D01*
X0193672Y0122253D01*
X0193933Y0122099D01*
X0194190Y0121939D01*
X0194443Y0121773D01*
X0194692Y0121601D01*
X0194937Y0121423D01*
X0195178Y0121238D01*
X0195413Y0121048D01*
X0195644Y0120853D01*
X0195871Y0120651D01*
X0196092Y0120445D01*
X0196308Y0120232D01*
X0196519Y0120015D01*
X0196724Y0119793D01*
X0196924Y0119565D01*
X0197119Y0119333D01*
X0197307Y0119096D01*
X0197490Y0118854D01*
X0197667Y0118609D01*
X0197838Y0118358D01*
X0198002Y0118104D01*
X0198161Y0117846D01*
X0198313Y0117584D01*
X0198458Y0117319D01*
X0198597Y0117050D01*
X0198730Y0116777D01*
X0198855Y0116502D01*
X0198974Y0116223D01*
X0199086Y0115942D01*
X0199191Y0115658D01*
X0199290Y0115371D01*
X0199381Y0115082D01*
X0199465Y0114791D01*
X0199542Y0114498D01*
X0199611Y0114204D01*
X0199674Y0113907D01*
X0199729Y0113610D01*
X0199777Y0113311D01*
X0199818Y0113011D01*
X0199851Y0112709D01*
X0199877Y0112408D01*
X0199895Y0112105D01*
X0199906Y0111803D01*
X0199910Y0111500D01*
X0199906Y0111197D01*
X0199895Y0110895D01*
X0199877Y0110592D01*
X0199851Y0110291D01*
X0199818Y0109989D01*
X0199777Y0109689D01*
X0199729Y0109390D01*
X0199674Y0109093D01*
X0199611Y0108796D01*
X0199542Y0108502D01*
X0199465Y0108209D01*
X0199381Y0107918D01*
X0199290Y0107629D01*
X0199191Y0107342D01*
X0199086Y0107058D01*
X0198974Y0106777D01*
X0198855Y0106498D01*
X0198730Y0106223D01*
X0198597Y0105950D01*
X0198458Y0105681D01*
X0198313Y0105416D01*
X0198161Y0105154D01*
X0198002Y0104896D01*
X0197838Y0104642D01*
X0197667Y0104391D01*
X0197490Y0104146D01*
X0197307Y0103904D01*
X0197119Y0103667D01*
X0196924Y0103435D01*
X0196724Y0103207D01*
X0196519Y0102985D01*
X0196308Y0102768D01*
X0196092Y0102555D01*
X0195871Y0102349D01*
X0195644Y0102147D01*
X0195413Y0101952D01*
X0195178Y0101762D01*
X0194937Y0101577D01*
X0194692Y0101399D01*
X0194443Y0101227D01*
X0194190Y0101061D01*
X0193933Y0100901D01*
X0193672Y0100747D01*
X0193407Y0100600D01*
X0193139Y0100460D01*
X0192867Y0100326D01*
X0192592Y0100198D01*
X0192314Y0100078D01*
X0192034Y0099964D01*
X0191750Y0099857D01*
X0191465Y0099758D01*
X0191176Y0099665D01*
X0190886Y0099579D01*
X0190593Y0099500D01*
X0190299Y0099429D01*
X0190003Y0099365D01*
X0189706Y0099308D01*
X0189407Y0099258D01*
X0189107Y0099216D01*
X0188806Y0099181D01*
X0188505Y0099153D01*
X0188202Y0099133D01*
X0187900Y0099120D01*
X0187597Y0099114D01*
X0187294Y0099116D01*
X0186992Y0099125D01*
X0186689Y0099142D01*
X0186387Y0099166D01*
X0186086Y0099198D01*
X0185786Y0099237D01*
X0185486Y0099283D01*
X0185188Y0099336D01*
X0184892Y0099397D01*
X0184596Y0099465D01*
X0184303Y0099540D01*
X0184012Y0099622D01*
X0183722Y0099712D01*
X0183435Y0099808D01*
X0183151Y0099912D01*
X0182869Y0100022D01*
X0182589Y0100139D01*
X0182313Y0100263D01*
X0182040Y0100394D01*
X0181770Y0100532D01*
X0181504Y0100676D01*
X0181241Y0100826D01*
X0180982Y0100983D01*
X0180726Y0101146D01*
X0180475Y0101315D01*
X0180228Y0101491D01*
X0179986Y0101672D01*
X0179748Y0101859D01*
X0179514Y0102052D01*
X0179286Y0102251D01*
X0179062Y0102455D01*
X0178844Y0102665D01*
X0178630Y0102879D01*
X0178422Y0103100D01*
X0178219Y0103325D01*
X0178022Y0103554D01*
X0177831Y0103789D01*
X0177645Y0104028D01*
X0177720Y0104085D01*
X0177905Y0103847D01*
X0178095Y0103615D01*
X0178290Y0103386D01*
X0178491Y0103163D01*
X0178698Y0102945D01*
X0178910Y0102731D01*
X0179127Y0102523D01*
X0179349Y0102321D01*
X0179576Y0102124D01*
X0179807Y0101932D01*
X0180043Y0101746D01*
X0180284Y0101566D01*
X0180529Y0101392D01*
X0180778Y0101224D01*
X0181032Y0101062D01*
X0181289Y0100907D01*
X0181550Y0100758D01*
X0181814Y0100615D01*
X0182082Y0100478D01*
X0182353Y0100349D01*
X0182627Y0100226D01*
X0182904Y0100109D01*
X0183184Y0100000D01*
X0183467Y0099897D01*
X0183751Y0099801D01*
X0184039Y0099713D01*
X0184328Y0099631D01*
X0184619Y0099556D01*
X0184912Y0099489D01*
X0185206Y0099428D01*
X0185502Y0099375D01*
X0185799Y0099330D01*
X0186097Y0099291D01*
X0186396Y0099260D01*
X0186696Y0099236D01*
X0186996Y0099219D01*
X0187296Y0099210D01*
X0187597Y0099208D01*
X0187897Y0099214D01*
X0188198Y0099226D01*
X0188497Y0099247D01*
X0188797Y0099274D01*
X0189095Y0099309D01*
X0189393Y0099351D01*
X0189689Y0099400D01*
X0189984Y0099457D01*
X0190278Y0099521D01*
X0190570Y0099591D01*
X0190860Y0099669D01*
X0191149Y0099755D01*
X0191435Y0099847D01*
X0191719Y0099946D01*
X0192000Y0100052D01*
X0192278Y0100165D01*
X0192554Y0100284D01*
X0192827Y0100411D01*
X0193096Y0100544D01*
X0193362Y0100683D01*
X0193625Y0100829D01*
X0193884Y0100981D01*
X0194140Y0101140D01*
X0194391Y0101305D01*
X0194638Y0101476D01*
X0194881Y0101653D01*
X0195120Y0101836D01*
X0195354Y0102024D01*
X0195583Y0102218D01*
X0195807Y0102418D01*
X0196027Y0102623D01*
X0196241Y0102834D01*
X0196451Y0103050D01*
X0196655Y0103270D01*
X0196853Y0103496D01*
X0197046Y0103727D01*
X0197233Y0103962D01*
X0197415Y0104201D01*
X0197590Y0104445D01*
X0197760Y0104694D01*
X0197923Y0104946D01*
X0198080Y0105202D01*
X0198231Y0105462D01*
X0198375Y0105726D01*
X0198513Y0105993D01*
X0198645Y0106263D01*
X0198769Y0106536D01*
X0198887Y0106813D01*
X0198998Y0107092D01*
X0199103Y0107374D01*
X0199200Y0107658D01*
X0199291Y0107945D01*
X0199374Y0108234D01*
X0199450Y0108524D01*
X0199520Y0108817D01*
X0199582Y0109111D01*
X0199636Y0109406D01*
X0199684Y0109703D01*
X0199724Y0110001D01*
X0199757Y0110300D01*
X0199783Y0110599D01*
X0199801Y0110899D01*
X0199812Y0111199D01*
X0199816Y0111500D01*
X0199812Y0111801D01*
X0199801Y0112101D01*
X0199783Y0112401D01*
X0199757Y0112700D01*
X0199724Y0112999D01*
X0199684Y0113297D01*
X0199636Y0113594D01*
X0199582Y0113889D01*
X0199520Y0114183D01*
X0199450Y0114476D01*
X0199374Y0114766D01*
X0199291Y0115055D01*
X0199200Y0115342D01*
X0199103Y0115626D01*
X0198998Y0115908D01*
X0198887Y0116187D01*
X0198769Y0116464D01*
X0198645Y0116737D01*
X0198513Y0117007D01*
X0198375Y0117274D01*
X0198231Y0117538D01*
X0198080Y0117798D01*
X0197923Y0118054D01*
X0197760Y0118306D01*
X0197590Y0118555D01*
X0197415Y0118799D01*
X0197233Y0119038D01*
X0197046Y0119273D01*
X0196853Y0119504D01*
X0196655Y0119730D01*
X0196451Y0119950D01*
X0196241Y0120166D01*
X0196027Y0120377D01*
X0195807Y0120582D01*
X0195583Y0120782D01*
X0195354Y0120976D01*
X0195120Y0121164D01*
X0194881Y0121347D01*
X0194638Y0121524D01*
X0194391Y0121695D01*
X0194140Y0121860D01*
X0193884Y0122019D01*
X0193625Y0122171D01*
X0193362Y0122317D01*
X0193096Y0122456D01*
X0192827Y0122589D01*
X0192554Y0122716D01*
X0192278Y0122835D01*
X0192000Y0122948D01*
X0191719Y0123054D01*
X0191435Y0123153D01*
X0191149Y0123245D01*
X0190860Y0123331D01*
X0190570Y0123409D01*
X0190278Y0123479D01*
X0189984Y0123543D01*
X0189689Y0123600D01*
X0189393Y0123649D01*
X0189095Y0123691D01*
X0188797Y0123726D01*
X0188497Y0123753D01*
X0188198Y0123774D01*
X0187897Y0123786D01*
X0187597Y0123792D01*
X0187296Y0123790D01*
X0186996Y0123781D01*
X0186696Y0123764D01*
X0186396Y0123740D01*
X0186097Y0123709D01*
X0185799Y0123670D01*
X0185502Y0123625D01*
X0185206Y0123572D01*
X0184912Y0123511D01*
X0184619Y0123444D01*
X0184328Y0123369D01*
X0184039Y0123287D01*
X0183751Y0123199D01*
X0183467Y0123103D01*
X0183184Y0123000D01*
X0182904Y0122891D01*
X0182627Y0122774D01*
X0182353Y0122651D01*
X0182082Y0122522D01*
X0181814Y0122385D01*
X0181550Y0122242D01*
X0181289Y0122093D01*
X0181032Y0121938D01*
X0180778Y0121776D01*
X0180529Y0121608D01*
X0180284Y0121434D01*
X0180043Y0121254D01*
X0179807Y0121068D01*
X0179576Y0120876D01*
X0179349Y0120679D01*
X0179127Y0120477D01*
X0178910Y0120269D01*
X0178698Y0120055D01*
X0178491Y0119837D01*
X0178290Y0119614D01*
X0178095Y0119385D01*
X0177905Y0119153D01*
X0177720Y0118915D01*
X0177796Y0118859D01*
X0177978Y0119094D01*
X0178167Y0119325D01*
X0178361Y0119552D01*
X0178561Y0119774D01*
X0178766Y0119990D01*
X0178976Y0120202D01*
X0179191Y0120408D01*
X0179411Y0120609D01*
X0179637Y0120805D01*
X0179866Y0120995D01*
X0180101Y0121179D01*
X0180340Y0121358D01*
X0180583Y0121531D01*
X0180830Y0121697D01*
X0181082Y0121858D01*
X0181337Y0122012D01*
X0181596Y0122160D01*
X0181858Y0122302D01*
X0182124Y0122437D01*
X0182393Y0122566D01*
X0182665Y0122688D01*
X0182940Y0122804D01*
X0183218Y0122913D01*
X0183498Y0123014D01*
X0183781Y0123109D01*
X0184066Y0123197D01*
X0184353Y0123278D01*
X0184641Y0123353D01*
X0184932Y0123419D01*
X0185224Y0123479D01*
X0185518Y0123532D01*
X0185813Y0123577D01*
X0186108Y0123616D01*
X0186405Y0123647D01*
X0186702Y0123670D01*
X0187000Y0123687D01*
X0187298Y0123696D01*
X0187596Y0123698D01*
X0187895Y0123692D01*
X0188193Y0123680D01*
X0188490Y0123660D01*
X0188787Y0123632D01*
X0189083Y0123598D01*
X0189379Y0123556D01*
X0189673Y0123507D01*
X0189966Y0123451D01*
X0190257Y0123388D01*
X0190547Y0123317D01*
X0190835Y0123240D01*
X0191121Y0123156D01*
X0191405Y0123064D01*
X0191687Y0122966D01*
X0191966Y0122861D01*
X0192242Y0122749D01*
X0192516Y0122630D01*
X0192786Y0122505D01*
X0193054Y0122373D01*
X0193318Y0122234D01*
X0193579Y0122089D01*
X0193836Y0121938D01*
X0194089Y0121781D01*
X0194338Y0121617D01*
X0194584Y0121447D01*
X0194825Y0121272D01*
X0195062Y0121090D01*
X0195294Y0120903D01*
X0195521Y0120711D01*
X0195744Y0120512D01*
X0195962Y0120309D01*
X0196175Y0120100D01*
X0196383Y0119886D01*
X0196585Y0119666D01*
X0196782Y0119443D01*
X0196973Y0119214D01*
X0197159Y0118980D01*
X0197339Y0118743D01*
X0197513Y0118501D01*
X0197681Y0118254D01*
X0197843Y0118004D01*
X0197999Y0117750D01*
X0198149Y0117492D01*
X0198292Y0117230D01*
X0198429Y0116965D01*
X0198560Y0116697D01*
X0198683Y0116426D01*
X0198800Y0116151D01*
X0198911Y0115874D01*
X0199014Y0115594D01*
X0199111Y0115312D01*
X0199201Y0115028D01*
X0199283Y0114741D01*
X0199359Y0114453D01*
X0199428Y0114163D01*
X0199489Y0113871D01*
X0199544Y0113578D01*
X0199591Y0113283D01*
X0199631Y0112988D01*
X0199664Y0112691D01*
X0199689Y0112394D01*
X0199707Y0112096D01*
X0199718Y0111798D01*
X0199722Y0111500D01*
X0199718Y0111202D01*
X0199707Y0110904D01*
X0199689Y0110606D01*
X0199664Y0110309D01*
X0199631Y0110012D01*
X0199591Y0109717D01*
X0199544Y0109422D01*
X0199489Y0109129D01*
X0199428Y0108837D01*
X0199359Y0108547D01*
X0199283Y0108259D01*
X0199201Y0107972D01*
X0199111Y0107688D01*
X0199014Y0107406D01*
X0198911Y0107126D01*
X0198800Y0106849D01*
X0198683Y0106574D01*
X0198560Y0106303D01*
X0198429Y0106035D01*
X0198292Y0105770D01*
X0198149Y0105508D01*
X0197999Y0105250D01*
X0197843Y0104996D01*
X0197681Y0104746D01*
X0197513Y0104499D01*
X0197339Y0104257D01*
X0197159Y0104020D01*
X0196973Y0103786D01*
X0196782Y0103557D01*
X0196585Y0103334D01*
X0196383Y0103114D01*
X0196175Y0102900D01*
X0195962Y0102691D01*
X0195744Y0102488D01*
X0195521Y0102289D01*
X0195294Y0102097D01*
X0195062Y0101910D01*
X0194825Y0101728D01*
X0194584Y0101553D01*
X0194338Y0101383D01*
X0194089Y0101219D01*
X0193836Y0101062D01*
X0193579Y0100911D01*
X0193318Y0100766D01*
X0193054Y0100627D01*
X0192786Y0100495D01*
X0192516Y0100370D01*
X0192242Y0100251D01*
X0191966Y0100139D01*
X0191687Y0100034D01*
X0191405Y0099936D01*
X0191121Y0099844D01*
X0190835Y0099760D01*
X0190547Y0099683D01*
X0190257Y0099612D01*
X0189966Y0099549D01*
X0189673Y0099493D01*
X0189379Y0099444D01*
X0189083Y0099402D01*
X0188787Y0099368D01*
X0188490Y0099340D01*
X0188193Y0099320D01*
X0187895Y0099308D01*
X0187596Y0099302D01*
X0187298Y0099304D01*
X0187000Y0099313D01*
X0186702Y0099330D01*
X0186405Y0099353D01*
X0186108Y0099384D01*
X0185813Y0099423D01*
X0185518Y0099468D01*
X0185224Y0099521D01*
X0184932Y0099581D01*
X0184641Y0099647D01*
X0184353Y0099722D01*
X0184066Y0099803D01*
X0183781Y0099891D01*
X0183498Y0099986D01*
X0183218Y0100087D01*
X0182940Y0100196D01*
X0182665Y0100312D01*
X0182393Y0100434D01*
X0182124Y0100563D01*
X0181858Y0100698D01*
X0181596Y0100840D01*
X0181337Y0100988D01*
X0181082Y0101142D01*
X0180830Y0101303D01*
X0180583Y0101469D01*
X0180340Y0101642D01*
X0180101Y0101821D01*
X0179866Y0102005D01*
X0179637Y0102195D01*
X0179411Y0102391D01*
X0179191Y0102592D01*
X0178976Y0102798D01*
X0178766Y0103010D01*
X0178561Y0103226D01*
X0178361Y0103448D01*
X0178167Y0103675D01*
X0177978Y0103906D01*
X0177796Y0104141D01*
X0177871Y0104198D01*
X0178052Y0103964D01*
X0178239Y0103735D01*
X0178432Y0103510D01*
X0178630Y0103290D01*
X0178833Y0103075D01*
X0179042Y0102865D01*
X0179256Y0102660D01*
X0179474Y0102461D01*
X0179698Y0102267D01*
X0179926Y0102078D01*
X0180158Y0101895D01*
X0180395Y0101718D01*
X0180637Y0101547D01*
X0180882Y0101381D01*
X0181131Y0101222D01*
X0181385Y0101069D01*
X0181641Y0100922D01*
X0181902Y0100781D01*
X0182166Y0100647D01*
X0182433Y0100519D01*
X0182703Y0100398D01*
X0182975Y0100283D01*
X0183251Y0100175D01*
X0183529Y0100074D01*
X0183810Y0099980D01*
X0184092Y0099893D01*
X0184377Y0099812D01*
X0184664Y0099739D01*
X0184952Y0099672D01*
X0185242Y0099613D01*
X0185534Y0099561D01*
X0185826Y0099516D01*
X0186120Y0099478D01*
X0186414Y0099447D01*
X0186709Y0099423D01*
X0187004Y0099407D01*
X0187300Y0099398D01*
X0187596Y0099396D01*
X0187892Y0099402D01*
X0188188Y0099414D01*
X0188483Y0099434D01*
X0188778Y0099461D01*
X0189072Y0099495D01*
X0189365Y0099537D01*
X0189657Y0099585D01*
X0189947Y0099641D01*
X0190236Y0099704D01*
X0190524Y0099774D01*
X0190810Y0099851D01*
X0191094Y0099934D01*
X0191375Y0100025D01*
X0191655Y0100123D01*
X0191932Y0100227D01*
X0192206Y0100338D01*
X0192477Y0100456D01*
X0192746Y0100580D01*
X0193011Y0100711D01*
X0193273Y0100849D01*
X0193532Y0100992D01*
X0193787Y0101142D01*
X0194039Y0101299D01*
X0194286Y0101461D01*
X0194529Y0101629D01*
X0194769Y0101804D01*
X0195004Y0101984D01*
X0195234Y0102169D01*
X0195460Y0102361D01*
X0195681Y0102557D01*
X0195897Y0102759D01*
X0196108Y0102967D01*
X0196314Y0103179D01*
X0196515Y0103397D01*
X0196711Y0103619D01*
X0196901Y0103846D01*
X0197085Y0104077D01*
X0197263Y0104313D01*
X0197436Y0104553D01*
X0197603Y0104798D01*
X0197764Y0105046D01*
X0197919Y0105299D01*
X0198067Y0105555D01*
X0198209Y0105814D01*
X0198345Y0106077D01*
X0198475Y0106343D01*
X0198597Y0106612D01*
X0198714Y0106885D01*
X0198823Y0107160D01*
X0198926Y0107437D01*
X0199022Y0107717D01*
X0199111Y0107999D01*
X0199193Y0108284D01*
X0199268Y0108570D01*
X0199336Y0108858D01*
X0199397Y0109147D01*
X0199451Y0109438D01*
X0199498Y0109731D01*
X0199538Y0110024D01*
X0199570Y0110318D01*
X0199595Y0110613D01*
X0199614Y0110908D01*
X0199624Y0111204D01*
X0199628Y0111500D01*
X0199624Y0111796D01*
X0199614Y0112092D01*
X0199595Y0112387D01*
X0199570Y0112682D01*
X0199538Y0112976D01*
X0199498Y0113269D01*
X0199451Y0113562D01*
X0199397Y0113853D01*
X0199336Y0114142D01*
X0199268Y0114430D01*
X0199193Y0114716D01*
X0199111Y0115001D01*
X0199022Y0115283D01*
X0198926Y0115563D01*
X0198823Y0115840D01*
X0198714Y0116115D01*
X0198597Y0116388D01*
X0198475Y0116657D01*
X0198345Y0116923D01*
X0198209Y0117186D01*
X0198067Y0117445D01*
X0197919Y0117701D01*
X0197764Y0117954D01*
X0197603Y0118202D01*
X0197436Y0118447D01*
X0197263Y0118687D01*
X0197085Y0118923D01*
X0196901Y0119154D01*
X0196711Y0119381D01*
X0196515Y0119603D01*
X0196314Y0119821D01*
X0196108Y0120033D01*
X0195897Y0120241D01*
X0195681Y0120443D01*
X0195460Y0120639D01*
X0195234Y0120831D01*
X0195004Y0121016D01*
X0194769Y0121196D01*
X0194529Y0121371D01*
X0194286Y0121539D01*
X0194039Y0121701D01*
X0193787Y0121858D01*
X0193532Y0122008D01*
X0193273Y0122151D01*
X0193011Y0122289D01*
X0192746Y0122420D01*
X0192477Y0122544D01*
X0192206Y0122662D01*
X0191932Y0122773D01*
X0191655Y0122877D01*
X0191375Y0122975D01*
X0191094Y0123066D01*
X0190810Y0123149D01*
X0190524Y0123226D01*
X0190236Y0123296D01*
X0189947Y0123359D01*
X0189657Y0123415D01*
X0189365Y0123463D01*
X0189072Y0123505D01*
X0188778Y0123539D01*
X0188483Y0123566D01*
X0188188Y0123586D01*
X0187892Y0123598D01*
X0187596Y0123604D01*
X0187300Y0123602D01*
X0187004Y0123593D01*
X0186709Y0123577D01*
X0186414Y0123553D01*
X0186120Y0123522D01*
X0185826Y0123484D01*
X0185534Y0123439D01*
X0185242Y0123387D01*
X0184952Y0123328D01*
X0184664Y0123261D01*
X0184377Y0123188D01*
X0184092Y0123107D01*
X0183810Y0123020D01*
X0183529Y0122926D01*
X0183251Y0122825D01*
X0182975Y0122717D01*
X0182703Y0122602D01*
X0182433Y0122481D01*
X0182166Y0122353D01*
X0181902Y0122219D01*
X0181641Y0122078D01*
X0181385Y0121931D01*
X0181131Y0121778D01*
X0180882Y0121619D01*
X0180637Y0121453D01*
X0180395Y0121282D01*
X0180158Y0121105D01*
X0179926Y0120922D01*
X0179698Y0120733D01*
X0179474Y0120539D01*
X0179256Y0120340D01*
X0179042Y0120135D01*
X0178833Y0119925D01*
X0178630Y0119710D01*
X0178432Y0119490D01*
X0178239Y0119265D01*
X0178052Y0119036D01*
X0177871Y0118802D01*
D15*
X0142524Y0077250D03*
X0142524Y0074750D03*
X0142524Y0072250D03*
X0132524Y0072250D03*
X0132524Y0074750D03*
X0132524Y0077250D03*
X0122524Y0077250D03*
X0122524Y0074750D03*
X0122524Y0072250D03*
X0112524Y0072250D03*
X0112524Y0074750D03*
X0112524Y0077250D03*
D16*
X0222524Y0164000D02*
X0222524Y0171500D01*
X0282524Y0171500D01*
X0282524Y0164000D01*
X0222524Y0164000D01*
X0222524Y0171500D02*
X0222524Y0189000D01*
X0282524Y0189000D01*
X0282524Y0171500D01*
D17*
X0280241Y0161303D02*
X0280241Y0157700D01*
X0279040Y0157700D02*
X0281443Y0157700D01*
X0279040Y0160102D02*
X0280241Y0161303D01*
X0277759Y0161303D02*
X0275357Y0157700D01*
X0277759Y0157700D02*
X0275357Y0161303D01*
M02*
