G75*
%MOIN*%
%OFA0B0*%
%FSLAX25Y25*%
%IPPOS*%
%LPD*%
%AMOC8*
5,1,8,0,0,1.08239X$1,22.5*
%
%ADD10C,0.07400*%
%ADD11C,0.05200*%
%ADD12C,0.05937*%
%ADD13C,0.01000*%
D10*
X0137524Y0011500D03*
X0147524Y0011500D03*
X0157524Y0011500D03*
X0167524Y0011500D03*
X0177524Y0011500D03*
X0187524Y0011500D03*
X0197524Y0011500D03*
X0207524Y0011500D03*
X0227524Y0011500D03*
X0237524Y0011500D03*
X0247524Y0011500D03*
X0257524Y0011500D03*
X0267524Y0011500D03*
X0277524Y0011500D03*
X0192524Y0111500D03*
X0182524Y0111500D03*
X0177524Y0141500D03*
X0192524Y0141500D03*
X0207524Y0141500D03*
X0207524Y0171500D03*
X0192524Y0171500D03*
X0177524Y0171500D03*
X0162524Y0171500D03*
X0147524Y0171500D03*
X0132524Y0171500D03*
X0117524Y0171500D03*
X0117524Y0141500D03*
X0132524Y0141500D03*
X0147524Y0141500D03*
X0162524Y0141500D03*
X0162524Y0201500D03*
X0172524Y0201500D03*
X0182524Y0201500D03*
X0192524Y0201500D03*
X0207524Y0201500D03*
X0217524Y0201500D03*
X0227524Y0201500D03*
X0237524Y0201500D03*
X0247524Y0201500D03*
X0257524Y0201500D03*
X0267524Y0201500D03*
X0277524Y0201500D03*
X0152524Y0201500D03*
X0142524Y0201500D03*
X0132524Y0201500D03*
X0122524Y0201500D03*
X0112524Y0201500D03*
X0102524Y0201500D03*
D11*
X0112524Y0059100D02*
X0112524Y0053900D01*
X0122524Y0053900D02*
X0122524Y0059100D01*
X0132524Y0059100D02*
X0132524Y0053900D01*
X0142524Y0053900D02*
X0142524Y0059100D01*
X0142524Y0083900D02*
X0142524Y0089100D01*
X0132524Y0089100D02*
X0132524Y0083900D01*
X0122524Y0083900D02*
X0122524Y0089100D01*
X0112524Y0089100D02*
X0112524Y0083900D01*
D12*
X0227524Y0173531D02*
X0227524Y0179469D01*
X0237524Y0179469D02*
X0237524Y0173531D01*
X0247524Y0173531D02*
X0247524Y0179469D01*
X0257524Y0179469D02*
X0257524Y0173531D01*
X0267524Y0173531D02*
X0267524Y0179469D01*
X0277524Y0179469D02*
X0277524Y0173531D01*
D13*
X0262524Y0171500D02*
X0262524Y0201500D01*
X0267524Y0201500D01*
X0257524Y0201500D02*
X0240024Y0184000D01*
X0205024Y0184000D01*
X0192524Y0171500D01*
X0182524Y0166500D02*
X0177524Y0171500D01*
X0182524Y0166500D02*
X0247524Y0166500D01*
X0257524Y0176500D01*
X0262524Y0171500D02*
X0255024Y0164000D01*
X0170024Y0164000D01*
X0162524Y0171500D01*
X0147524Y0171500D02*
X0162524Y0186500D01*
X0222524Y0186500D01*
X0237524Y0201500D01*
X0227524Y0201500D02*
X0215024Y0189000D01*
X0150024Y0189000D01*
X0132524Y0171500D01*
X0117524Y0171500D02*
X0142524Y0196500D01*
X0212524Y0196500D01*
X0217524Y0201500D01*
X0172524Y0146500D02*
X0152524Y0146500D01*
X0147524Y0141500D01*
X0132524Y0141500D01*
X0117524Y0141500D02*
X0142524Y0116500D01*
X0187524Y0116500D01*
X0192524Y0111500D01*
X0177524Y0141500D02*
X0172524Y0146500D01*
M02*
