%
M48
M72
T01C0.03200
T02C0.03543
T03C0.03937
T04C0.04000
%
T01
X112524Y56500
X122524Y56500
X132524Y56500
X142524Y56500
X142524Y86500
X132524Y86500
X122524Y86500
X112524Y86500
X182524Y111500
X192524Y111500
T02
X192524Y141500
X207524Y141500
X177524Y141500
X162524Y141500
X147524Y141500
X132524Y141500
X117524Y141500
X117524Y171500
X132524Y171500
X147524Y171500
X162524Y171500
X177524Y171500
X192524Y171500
X207524Y171500
T03
X227524Y176500
X237524Y176500
X247524Y176500
X257524Y176500
X267524Y176500
X277524Y176500
T04
X277524Y201500
X267524Y201500
X257524Y201500
X247524Y201500
X237524Y201500
X227524Y201500
X217524Y201500
X207524Y201500
X192524Y201500
X182524Y201500
X172524Y201500
X162524Y201500
X152524Y201500
X142524Y201500
X132524Y201500
X122524Y201500
X112524Y201500
X102524Y201500
X137524Y11500
X147524Y11500
X157524Y11500
X167524Y11500
X177524Y11500
X187524Y11500
X197524Y11500
X207524Y11500
X227524Y11500
X237524Y11500
X247524Y11500
X257524Y11500
X267524Y11500
X277524Y11500
M30
